<?xml version="1.0" encoding="UTF-8"?>
<svg width="460px" height="272px" viewBox="0 0 460 272" version="1.1" xmlns="http://www.w3.org/2000/svg" xmlns:xlink="http://www.w3.org/1999/xlink">
    <!-- Generator: Sketch 50.2 (55047) - http://www.bohemiancoding.com/sketch -->
    <title>Line Copy</title>
    <desc>Created with Sketch.</desc>
    <defs></defs>
    <g id="Page-1" stroke="none" stroke-width="1" fill="none" fill-rule="evenodd">
        <g id="Desktop-HD-Copy-4" transform="translate(-624.000000, -381.000000)">
            <g id="Line-Copy" transform="translate(619.000000, 371.000000)">
                <path d="M373,162 C389.071251,177.428038 402.00509,187.909644 411.801518,193.444818 C421.597946,198.979992 437.664106,204.83172 460,211" stroke="#E7E7E7" stroke-width="4" stroke-linecap="square"></path>
                <path d="M184.733592,140.40011 C186.914705,126.800037 188.670175,120 190,120 C191.329825,120 192.95542,126.800037 194.876784,140.40011 L197,257 L183,257 L184.733592,140.40011 Z" id="Rectangle-32-Copy-2" fill="#D8D8D8" fill-rule="evenodd" opacity="0.612723214"></path>
                <path d="M368.23828,173.592779 C369.796218,163.86426 371.050125,159 372,159 C372.949875,159 374.111014,163.86426 375.483417,173.592779 L377,257 L367,257 L368.23828,173.592779 Z" id="Rectangle-32-Copy-3" fill="#D8D8D8" fill-rule="evenodd" opacity="0.612723214"></path>
                <path d="M190,121 C227.872538,145.89522 256.745337,160.430811 276.618397,164.606773 C296.491458,168.782735 327.951992,167.493693 371,160.739647" id="Line-9-Copy" stroke="#E7E7E7" stroke-width="4" stroke-linecap="square"></path>
                <path d="M189,120 C160.741293,151.894268 138.848619,172.341161 123.321978,181.340679 C107.795337,190.340197 77.3546774,200.226638 32,211" id="Line-10-Copy" stroke="#E7E7E7" stroke-width="4" stroke-linecap="square"></path>
                <path d="M32,229 C106.590844,220.145206 158.62886,214.834808 188.114048,213.068808 C228.264965,210.66399 268.184719,213.068808 290.761303,213.068808 C338.206866,213.068808 394.619764,218.379205 460,229" id="Line-11-Copy" stroke="#E7E7E7" stroke-width="9" stroke-linecap="square"></path>
                <path d="M49.5,207.5 L49.5,225.5" id="Line-12-Copy-20" stroke="#E7E7E7" stroke-width="3" stroke-linecap="square"></path>
                <path d="M75.5,201.5 L75.5,220.5" id="Line-12-Copy-21" stroke="#E7E7E7" stroke-width="3" stroke-linecap="square"></path>
                <path d="M97.5,193.5 L97.5,217.5" id="Line-12-Copy-22" stroke="#E7E7E7" stroke-width="3" stroke-linecap="square"></path>
                <path d="M118.5,185.5 L118.5,216.5" id="Line-12-Copy-23" stroke="#E7E7E7" stroke-width="3" stroke-linecap="square"></path>
                <path d="M137.5,173.5 L137.5,211.5" id="Line-12-Copy-24" stroke="#E7E7E7" stroke-width="3" stroke-linecap="square"></path>
                <path d="M154.5,157.5 L154.5,212.5" id="Line-12-Copy-25" stroke="#E7E7E7" stroke-width="3" stroke-linecap="square"></path>
                <path d="M169.5,142.5 L169.5,212.5" id="Line-12-Copy-26" stroke="#E7E7E7" stroke-width="3" stroke-linecap="square"></path>
                <path d="M211.5,134.5 L211.5,209.5" id="Line-12-Copy-27" stroke="#E7E7E7" stroke-width="3" stroke-linecap="square"></path>
                <path d="M228.5,145.5 L228.5,212.5" id="Line-12-Copy-28" stroke="#E7E7E7" stroke-width="3" stroke-linecap="square"></path>
                <path d="M245.5,153.5 L245.5,212.5" id="Line-12-Copy-29" stroke="#E7E7E7" stroke-width="3" stroke-linecap="square"></path>
                <path d="M262.5,160.5 L262.5,212.5" id="Line-12-Copy-30" stroke="#E7E7E7" stroke-width="3" stroke-linecap="square"></path>
                <path d="M279.5,165.5 L279.5,212.5" id="Line-12-Copy-31" stroke="#E7E7E7" stroke-width="3" stroke-linecap="square"></path>
                <path d="M298.5,167.5 L298.5,214.5" id="Line-12-Copy-32" stroke="#E7E7E7" stroke-width="3" stroke-linecap="square"></path>
                <path d="M317.5,166.5 L317.5,213.5" id="Line-12-Copy-33" stroke="#E7E7E7" stroke-width="3" stroke-linecap="square"></path>
                <path d="M336.5,166.5 L336.5,213.5" id="Line-12-Copy-34" stroke="#E7E7E7" stroke-width="3" stroke-linecap="square"></path>
                <path d="M355.5,164.5 L355.5,211.5" id="Line-12-Copy-35" stroke="#E7E7E7" stroke-width="3" stroke-linecap="square"></path>
                <text id="Moving-Forward" font-family="Raleway-Regular, Raleway" font-size="80" font-weight="normal" line-spacing="80" letter-spacing="0.119999997" fill="#000000">
                    <tspan x="66" y="146">Moving </tspan>
                    <tspan x="66" y="226">Forward</tspan>
                    <tspan x="370.28" y="226" letter-spacing="-0.08"> </tspan>
                </text>
                <path d="M82.847195,77.1780697 C84.1216914,77.3083042 85.4460367,76.5629107 86.8046329,75.3289841 C88.8891249,73.4357726 91.033827,70.7459173 91.033827,62.4291684 C91.033827,52.2662141 86.7354893,41.7629159 83.1716887,36.8947154 C81.9925237,35.2839599 78.6200567,31.9898155 78.4221755,32.2025931 C78.2222903,32.4175256 78.0149868,36.3652426 77.3293437,40.4406588 C76.847846,43.3026486 76.0581605,46.0634986 75.6850894,48.3009208 C74.9467365,52.7290499 73.033827,57.8622698 73.033827,62.6581709 C73.033827,76.1837712 79.5528019,76.8414318 82.847195,77.1780697 Z" id="Oval-3-Copy-7" fill="#8D19F5" fill-rule="evenodd" transform="translate(82.033827, 54.692761) rotate(383.000000) translate(-82.033827, -54.692761) "></path>
                <path d="M29.1094748,56.9711471 C30.737998,57.1361109 32.4302169,56.1919457 34.166201,54.6289721 C36.8297186,52.2309042 39.5701713,48.8237542 39.5701713,38.2892055 C39.5701713,25.41613 34.0778508,12.1119524 29.5241056,5.94556508 C28.0173948,3.9052747 23.7081314,-0.267308119 23.4552833,0.00221007457 C23.1998743,0.274457963 22.9349865,5.27489946 22.058887,10.4370933 C21.44364,14.0622804 20.4345974,17.5593571 19.9578954,20.3934252 C19.0144445,26.0023888 16.5701713,32.5044672 16.5701713,38.5792753 C16.5701713,55.7117024 24.8999725,56.5447391 29.1094748,56.9711471 Z" id="Oval-3-Copy-8" fill="#25BFC3" fill-rule="evenodd" transform="translate(28.070171, 28.489756) rotate(676.000000) translate(-28.070171, -28.489756) "></path>
                <path d="M65.2458312,61.1613831 C66.1663008,61.2539943 67.1227724,60.7239367 68.1039807,59.8464778 C69.6094472,58.5001941 71.1583987,56.5874081 71.1583987,50.6732755 C71.1583987,43.4462858 68.0540437,35.9772738 65.4801877,32.5154423 C64.6285685,31.3700161 62.1928979,29.0275135 62.0499838,29.178822 C61.9056222,29.3316629 61.755903,32.1389283 61.2607163,35.037002 C60.912968,37.0721948 60.3426396,39.0354659 60.0731993,40.6265217 C59.5399445,43.7754135 58.1583987,47.4257032 58.1583987,50.8361217 C58.1583987,60.4543264 62.8665472,60.9219961 65.2458312,61.1613831 Z" id="Oval-3-Copy-9" fill="#D46B59" fill-rule="evenodd" transform="translate(64.658399, 45.171830) rotate(376.000000) translate(-64.658399, -45.171830) "></path>
                <path d="M53.718076,99.2406833 C52.5846028,100.005354 50.9107198,100.054767 48.9292325,99.7084287 C45.8890397,99.1770425 42.3431148,98.0025476 37.6586099,90.9658756 C31.9342086,82.367158 30.0882298,71.2731935 30.7207465,65.3241979 C30.9300291,63.3558365 32.2679761,58.8368791 32.5752005,58.9152907 C32.8855364,58.9944965 35.3054306,62.2281438 38.2501959,65.3241979 C40.3181781,67.4984237 42.6210173,69.4288158 44.2345347,71.130284 C47.4278809,74.4976955 52.1305731,77.8585135 54.8319198,81.9162509 C62.4503703,93.3600511 56.6479439,97.2641187 53.718076,99.2406833 Z" id="Oval-3-Copy-10" fill="#8D19F5" fill-rule="evenodd" transform="translate(44.602444, 79.414283) rotate(314.000000) translate(-44.602444, -79.414283) "></path>
                <path d="M45.830109,73.7906769 C45.0609665,74.3128907 43.9251173,74.3466364 42.5805367,74.1101128 C40.5175487,73.7472149 38.1113853,72.9451208 34.9326142,68.1395887 C31.048199,62.2672937 29.7955705,54.6909278 30.2247783,50.628199 C30.3667915,49.2839522 31.2746841,46.197835 31.4831578,46.2513844 C31.6937429,46.3054762 33.335814,48.5138206 35.3340475,50.628199 C36.7373212,52.1130362 38.2999621,53.4313528 39.3948489,54.593331 C41.5617624,56.8930267 44.7528749,59.1882195 46.5859316,61.9593572 C51.7555945,69.7746354 47.8182336,72.4408279 45.830109,73.7906769 Z" id="Oval-3-Copy-11" fill="#8FD459" fill-rule="evenodd" transform="translate(39.644501, 60.250696) rotate(312.000000) translate(-39.644501, -60.250696) "></path>
                <text id="Family-Services" font-family="Raleway-Regular, Raleway" font-size="36" font-weight="normal" letter-spacing="0.119999997" fill="#000000">
                    <tspan x="71" y="273">Family Services</tspan>
                </text>
                <rect id="Rectangle-33-Copy" fill="#FFFFFF" fill-rule="evenodd" transform="translate(202.149322, 129.359631) rotate(22.000000) translate(-202.149322, -129.359631) " x="201.649322" y="124.859631" width="1" height="9"></rect>
                <path d="M391.5,179.5 L391.5,219.5" id="Line-12-Copy-105" stroke="#E7E7E7" stroke-width="3" stroke-linecap="square"></path>
                <path d="M410.5,194.5 L410.5,224.5" id="Line-12-Copy-106" stroke="#E7E7E7" stroke-width="3" stroke-linecap="square"></path>
                <path d="M428.5,202.5 L428.5,227.5" id="Line-12-Copy-107" stroke="#E7E7E7" stroke-width="3" stroke-linecap="square"></path>
                <path d="M446.5,207.5 L446.5,229.5" id="Line-12-Copy-108" stroke="#E7E7E7" stroke-width="3" stroke-linecap="square"></path>
            </g>
        </g>
    </g>
</svg>