<?xml version="1.0" encoding="UTF-8"?>
<svg width="159px" height="289px" viewBox="0 0 159 289" version="1.1" xmlns="http://www.w3.org/2000/svg" xmlns:xlink="http://www.w3.org/1999/xlink">
    <!-- Generator: Sketch 50.2 (55047) - http://www.bohemiancoding.com/sketch -->
    <title>if_man-women-couple-wedding-love-bouquet_3272450</title>
    <desc>Created with Sketch.</desc>
    <defs></defs>
    <g id="Page-1" stroke="none" stroke-width="1" fill="none" fill-rule="evenodd">
        <g id="About-us" transform="translate(-221.000000, -1069.000000)" fill-rule="nonzero">
            <g id="if_man-women-couple-wedding-love-bouquet_3272450" transform="translate(221.000000, 1069.000000)">
                <g id="flat" transform="translate(5.000000, 5.000000)">
                    <path d="M153.893793,62.9591196 L126.770012,108.288223 C126.515579,108.248161 126.257971,108.232016 126.000543,108.240001 C125.155237,108.233533 124.313279,108.347181 123.499769,108.577558 L96.1836207,62.9591196 L153.893793,62.9591196 Z" id="Shape" fill="#379435"></path>
                    <path d="M105.417248,160.513137 C108.864918,164.10311 108.990406,169.744433 105.705799,173.484976 L105.705799,173.533199 C103.939185,175.563014 101.406392,176.759381 98.7206066,176.832662 C96.0348216,176.905943 93.4408926,175.849457 91.5668069,173.918978 C86.0454125,168.14984 81.1451002,161.813851 76.9468966,155.015778 L76.9468966,96.7148349 C76.9548321,96.5047144 76.9386959,96.2943747 76.8988047,96.0879431 C78.9590821,120.15487 88.9992676,142.836364 105.417248,160.513137 Z" id="Shape" fill="#FCC29D"></path>
                    <rect id="Rectangle-path" fill="#21386E" x="57.7101724" y="159.404021" width="19.2367241" height="120.556126"></rect>
                    <polygon id="Shape" fill="#21386E" points="38.4734483 159.404021 38.4734483 279.960147 19.2367241 279.960147 19.2367241 178.693001 19.2367241 159.404021"></polygon>
                    <path d="M76.9468966,155.015778 L76.9468966,159.404021 L19.2367241,159.404021 L19.2367241,87.0703448 L29.7688306,87.0703448 C30.3940241,87.1185673 30.9711259,87.1667897 31.5963194,87.1667897 C32.2215129,87.1667897 32.7505228,87.1185673 33.3276246,87.0703448 L67.4247181,87.0703448 C68.0235361,87.060327 68.6212678,87.1251222 69.2041151,87.2632346 C69.633056,87.3243184 70.052957,87.4376758 70.4545022,87.6007918 C70.6704363,87.6599369 70.8798887,87.7407143 71.0796957,87.841904 C71.9600778,88.199653 72.7732416,88.7051841 73.4842862,89.3368 C73.6766534,89.5296898 73.9171125,89.7225796 74.1094797,89.9154694 C74.4814666,90.2370217 74.8053952,90.6105516 75.0713159,91.0245858 C75.3556535,91.3636552 75.5978848,91.7360855 75.7926931,92.1337021 C75.8756803,92.2519343 75.9405232,92.3819724 75.9850603,92.5194817 C76.2195962,93.0335849 76.4125836,93.565742 76.5621621,94.1108226 C76.7477895,94.7057611 76.8608278,95.3210645 76.8988047,95.9432757 L76.8988047,96.0879431 C76.9386959,96.2943747 76.9548321,96.5047144 76.9468966,96.7148349 L76.9468966,155.015778 Z" id="Shape" fill="#E6A749"></path>
                    <path d="M19.2367241,159.404021 L19.2367241,178.693001 C19.2367241,184.019506 14.9304368,188.337491 9.61836207,188.337491 C4.30628738,188.337491 0,184.019506 0,178.693001 L0,96.7148349 C0.0392776611,91.4047292 4.32264204,87.1097292 9.61836207,87.0703448 C14.9238596,87.0862332 19.2208788,91.3949252 19.2367241,96.7148349 L19.2367241,159.404021 Z" id="Shape" fill="#FCC29D"></path>
                    <path d="M4.6649056,17.292459 C4.65851727,23.8499575 8.44913718,29.8147629 14.3794513,32.5789758 C23.9016297,32.5789758 38.1848974,14.8813365 38.1848974,14.8813365 C37.0261207,6.02092381 29.1804989,-0.398154214 20.2912778,0.241255285 C11.4020567,0.880664784 4.55053033,8.35692161 4.6649056,17.292459 Z" id="Shape" fill="#8A4B20"></path>
                    <path d="M38.1848974,14.8813365 C27.2938426,14.9556563 17.8084832,22.3510017 15.0527366,32.9165329 C14.956553,33.350535 14.8603694,33.7363146 14.7641858,34.1703167 L71.9934401,34.1703167 C77.2891601,34.1309323 81.5725245,29.8359323 81.6118022,24.5258266 C81.5959569,19.2059168 77.2989376,14.8972248 71.9934401,14.8813365 L38.1848974,14.8813365 Z" id="Shape" fill="#9E5625"></path>
                    <path d="M14.2832677,38.9925617 L14.2832677,70.3371545 C14.3280048,79.6398935 21.8378645,87.1701535 31.1154013,87.2150122 C40.411532,87.2150122 47.9475349,79.6585379 47.9475349,70.3371545 L47.9475349,61.1266665 C44.9068456,62.4282519 41.6353399,63.1007324 38.3291728,63.1037869 C25.0489861,63.1037869 14.2832677,52.3088237 14.2832677,38.9925617 Z" id="Shape" fill="#9E5625"></path>
                    <path d="M14.7641858,34.1703167 C14.4328969,35.7559448 14.2716741,37.3725522 14.2832677,38.9925617 C14.2832677,52.3088237 25.0489861,63.1037869 38.3291728,63.1037869 C41.6353399,63.1007324 44.9068456,62.4282519 47.9475349,61.1266665 L47.9475349,61.078444 C56.7063863,57.2453852 62.3701544,48.5752106 62.375078,38.9925617 C62.3866716,37.3725522 62.2254488,35.7559448 61.8941599,34.1703167 L14.7641858,34.1703167 Z" id="Shape" fill="#FCC29D"></path>
                </g>
                <g id="outline_cut_copy" fill="#000000">
                    <path d="M58.1777778,284.144831 C58.1777778,286.804642 60.3483676,288.960845 63.0259259,288.960845 L82.4185185,288.960845 C85.0960768,288.960845 87.2666667,286.804642 87.2666667,284.144831 L87.2666667,174.180782 C89.3368259,176.714005 91.4166815,179.237596 93.6565259,181.573363 C96.3693744,184.388338 100.123135,185.978724 104.046107,185.9752 L104.346693,185.9752 C108.466769,185.889441 112.359847,184.083432 115.070796,181.000258 C120.036192,175.382242 119.838064,166.921333 114.61507,161.538745 C98.8296583,144.619508 89.1869567,122.94646 87.2181852,99.9611885 C87.2181852,99.6433315 87.1018296,99.3495547 87.0533481,99.0365138 C86.9903222,98.6030725 86.9224481,98.1744472 86.820637,97.750638 C86.6869355,97.2286748 86.5250973,96.714225 86.3358222,96.2095135 C86.2097704,95.8772085 86.1031111,95.5400875 85.9528185,95.2222306 C85.6740964,94.6069534 85.3500048,94.0129677 84.9831889,93.4451214 C84.8765296,93.2765609 84.7844148,93.1031844 84.6729074,92.96352 C84.1924338,92.2654546 83.650548,91.6111211 83.0536259,91.0082183 L82.9760556,90.926346 C80.279242,88.2154617 76.6025328,86.6893179 72.7658556,86.6882536 L54.750137,86.6882536 C57.1502195,83.0997261 58.4132977,78.8793503 58.3765519,74.5711622 L58.3280704,68.2573677 C67.2747674,63.0369445 72.7448258,53.4777834 72.683437,43.1707503 L77.5315852,43.1322222 C85.56426,43.1003045 92.0499826,36.6058212 92.0178519,28.6263878 C91.9857212,20.6469543 85.4479045,14.2042199 77.4152296,14.2361377 L77.3085704,14.2361377 L46.9300741,14.4480423 C43.3141916,4.5346523 33.0342473,-1.34887712 22.5871403,0.515829954 C12.1400333,2.38053703 4.56497109,11.4510116 4.64937407,21.9947364 C4.70384864,29.32699 8.49918722,36.1310907 14.7286741,40.0644212 C14.4167171,42.4332071 14.4362955,44.8334847 14.7868519,47.1969381 C14.6495275,47.5965771 14.5679667,48.013021 14.5444444,48.4346537 L14.7432185,74.9227312 C14.7852744,79.4316235 16.2559777,83.8128044 18.946563,87.4443678 C17.5283804,86.9638096 16.0427265,86.7086315 14.5444444,86.6882536 C6.51176958,86.6882536 -8.8817842e-16,93.1568625 -8.8817842e-16,101.136296 L-8.8817842e-16,183.008535 C-8.8817842e-16,190.987969 6.51176958,197.456578 14.5444444,197.456578 C16.1997945,197.440615 17.8399393,197.140829 19.3925926,196.570431 L19.3925926,284.144831 C19.3925926,286.804642 21.5631825,288.960845 24.2407407,288.960845 L43.6333333,288.960845 C46.3108916,288.960845 48.4814815,286.804642 48.4814815,284.144831 L48.4814815,168.560493 L58.1777778,168.560493 L58.1777778,284.144831 Z M87.2666667,137.738003 C92.2658963,148.946445 99.1354236,159.235356 107.585256,168.170396 C109.333204,169.966067 109.408989,172.791237 107.759789,174.676831 C106.841187,175.709384 105.52993,176.313524 104.14307,176.343172 C102.841081,176.375738 101.585148,175.863764 100.681493,174.93208 C95.683556,169.669302 91.1923674,163.953459 87.2666667,157.85931 L87.2666667,137.738003 Z M77.5703704,279.328817 L67.8740741,279.328817 L67.8740741,168.560493 L77.5703704,168.560493 L77.5703704,279.328817 Z M77.3861407,23.8633498 L77.4249259,23.8633498 C79.1570024,23.8556071 80.7616654,24.7663797 81.6344537,26.2525883 C82.5072421,27.7387969 82.5155585,29.5746511 81.6562704,31.0686024 C80.7969822,32.5625537 79.2006358,33.4876353 77.4685593,33.495378 L67.316537,33.5724342 L67.2777519,33.5724342 L24.967963,33.8854751 C26.979529,28.0968839 32.446171,24.196793 38.6106519,24.1523107 L77.3861407,23.8633498 Z M19.3925926,163.744479 L19.3925926,183.008535 C19.3925926,185.668347 17.2220027,187.82455 14.5444444,187.82455 C11.8668862,187.82455 9.6962963,185.668347 9.6962963,183.008535 L9.6962963,101.136296 C9.6962963,98.4764848 11.8668862,96.3202818 14.5444444,96.3202818 C17.2220027,96.3202818 19.3925926,98.4764848 19.3925926,101.136296 L19.3925926,163.744479 Z M16.6291481,28.8093963 C13.9939966,25.1615688 13.6269591,20.3583321 15.6776163,16.3571712 C17.7282735,12.3560103 21.8541952,9.82506106 26.3739259,9.79577266 L26.4660407,9.79577266 C30.3307848,9.81208307 33.9559997,11.658295 36.225363,14.7658992 C27.6379874,15.636475 20.1692304,20.9889101 16.6291481,28.8093963 Z M24.2068037,43.5223193 L62.9921143,43.2381745 C63.0299663,53.8603138 54.4372212,62.5251096 43.7448407,62.6467113 L43.6090926,62.6467113 L43.5363704,62.6467113 C42.3481544,62.6402513 41.1631969,62.522541 39.9972222,62.2951423 C39.5124074,62.208454 39.0954667,62.0591576 38.649437,61.9387572 C37.9563994,61.7656535 37.2734073,61.5550399 36.6035185,61.3078594 C36.1187037,61.1200348 35.6338889,60.8840501 35.1490741,60.6528815 C34.5674045,60.3711253 34.0010094,60.0592615 33.4522222,59.7185747 C33.0061926,59.4440619 32.5747074,59.145469 32.1480704,58.8372441 C31.6147741,58.447147 31.1057185,58.0281538 30.6160556,57.5898965 C30.2524444,57.2624075 29.8936815,56.9349186 29.5543111,56.5785335 C29.058939,56.0485406 28.5928338,55.4922786 28.1580444,54.9121927 C27.8962444,54.5702557 27.6247481,54.2427667 27.392037,53.8911977 C26.9325064,53.1773835 26.5211275,52.4340869 26.1606074,51.6661992 C26.015163,51.3724223 25.8454778,51.1027255 25.7145778,50.7993166 C24.7383083,48.4947718 24.2260672,46.0225333 24.2068037,43.5223193 Z M24.4395148,74.8264109 L24.3619444,65.0161902 C24.4201222,65.0643504 24.4928444,65.1028785 24.5510222,65.1510386 C25.740054,66.178171 27.011229,67.1075159 28.3519704,67.9298787 L28.7446704,68.1658634 C30.1199685,68.9820735 31.559758,69.6859222 33.0498259,70.2704616 L33.4376778,70.410126 C34.9662705,70.9844279 36.5410827,71.4290904 38.1452296,71.7393459 L38.5136889,71.792322 C40.1912464,72.1019782 41.8931571,72.2631441 43.5993963,72.2739235 L43.817563,72.2739235 C45.3191979,72.2487791 46.8167386,72.1103215 48.2972519,71.8597462 C48.4184556,71.8597462 48.5396593,71.8597462 48.6560148,71.8260341 L48.6802556,74.6434024 C48.7009773,80.9549484 43.8116974,86.2111318 37.4761852,86.6882536 L35.6241926,86.6882536 C29.3428977,86.2566851 24.4626216,81.0809376 24.4395148,74.8264109 Z M38.7851852,279.328817 L29.0888889,279.328817 L29.0888889,168.560493 L38.7851852,168.560493 L38.7851852,279.328817 Z M43.6333333,158.928465 L29.0888889,158.928465 L29.0888889,96.3202747 L35.6241926,96.3202818 C35.9393222,96.3202818 36.2399074,96.4117861 36.555037,96.4117861 L36.7247222,96.4117861 C37.010763,96.4117861 37.272563,96.3347298 37.5537556,96.3202818 L72.7222222,96.3202818 C73.9927431,96.318114 75.2126156,96.8149467 76.1159259,97.7024778 C76.2274333,97.8132462 76.2953074,97.9577266 76.3971185,98.0781269 C76.6859257,98.40286 76.9304343,98.7639535 77.1243407,99.1520981 C77.2087566,99.3908829 77.2751975,99.6355677 77.3231148,99.8841322 C77.4646965,100.287813 77.5479435,100.709397 77.5703704,101.136296 L77.5703704,158.928465 L43.6333333,158.928465 Z" id="Shape"></path>
                </g>
            </g>
        </g>
    </g>
</svg>