<?xml version="1.0" ?><!DOCTYPE svg  PUBLIC '-//W3C//DTD SVG 1.1//EN'  'http://www.w3.org/Graphics/SVG/1.1/DTD/svg11.dtd'><svg enable-background="new 0 0 512 512" height="512px" id="Слой_1" version="1.1" viewBox="0 0 512 512" width="512px" xml:space="preserve" xmlns="http://www.w3.org/2000/svg" xmlns:xlink="http://www.w3.org/1999/xlink"><g id="Brainstorm"><path d="M211.906,294.441c-22.996,0-44.453-11.379-57.391-30.434l-4.02-5.922l-7.035,1.287   c-3.359,0.613-6.805,0.928-10.23,0.928c-31.129,0-56.453-25.324-56.453-56.451c0-20.34,11.023-39.197,28.766-49.203l5.777-3.26   l-0.199-6.627c-0.035-1.127-0.047-2.049-0.047-2.904c0-51.441,41.848-93.293,93.293-93.293c4.105,0,8.258,0.273,12.352,0.814   l6.156,0.813l3.867-4.859c17.383-21.834,43.332-34.354,71.191-34.354c31.766,0,60.715,16.16,77.438,43.234l2.809,4.547l5.316,0.592   c46.043,5.123,80.766,43.98,80.766,90.377c0,7.037-0.809,14.053-2.398,20.85l-1.594,6.791l5.473,4.326   c14.098,11.154,22.184,27.836,22.184,45.783c0,32.168-26.164,58.332-58.332,58.332c-13.102,0-25.477-4.242-35.789-12.27   l-5.703-4.434l-6.336,3.48c-15.719,8.652-33.57,13.223-51.625,13.223c-19.184,0-38.012-5.125-54.445-14.832l-7.523-4.441   l-6.016,6.332C248.938,286.777,231.09,294.441,211.906,294.441z" fill="#EA6BA2"/><path d="M472.551,173.084c1.758-7.5,2.691-15.32,2.691-23.357c0-52.438-39.605-95.621-90.531-101.287   C366.758,19.371,334.609,0,297.934,0c-32.309,0-61.105,15.037-79.781,38.496c-4.512-0.6-9.113-0.912-13.785-0.912   c-57.586,0-104.27,46.686-104.27,104.271c0,1.082,0.02,2.158,0.051,3.229c-20.5,11.566-34.348,33.549-34.348,58.766   c0,37.24,30.188,67.428,67.43,67.428c4.168,0,8.242-0.383,12.203-1.102c14.441,21.266,38.824,35.25,66.473,35.25   c22.91,0,43.582-9.602,58.207-24.996c17.598,10.391,38.113,16.355,60.027,16.355c20.523,0,39.816-5.234,56.637-14.43   c5.18,3.93,10.926,7.145,17.102,9.5c7.953,3.18,16.629,4.93,25.715,4.93c38.281,0,69.309-31.031,69.309-69.309   C498.902,205.424,488.602,185.777,472.551,173.084z M110.938,164.207l11.551-6.52l-0.395-13.25   c-0.031-1.021-0.043-1.84-0.043-2.582c0-21.984,8.563-42.658,24.109-58.205c15.547-15.551,36.219-24.111,58.207-24.111   c2.648,0,5.324,0.131,7.98,0.387c0.164,0.018,3.285,0.377,3.285,0.377c17.715,2.41,34.082,10.486,46.941,23.348   c11.883,11.883,19.68,26.756,22.695,42.924l22.586,2.496c-4.727-38.656-30.613-70.777-65.719-84.426   c14.867-14.523,34.707-22.691,55.797-22.691c13.891,0,27.559,3.609,39.535,10.438c11.637,6.637,21.516,16.176,28.563,27.586   l0.633,1.02c7.324,12.25,11.242,26.287,11.242,40.928c0,0.283-0.008,0.563-0.008,0.846l21.918,2.037   c0.027-0.959,0.043-1.916,0.043-2.883c0-10.074-1.465-19.801-4.188-28.99c14.176,4.123,27.035,12.141,37.09,23.303   c13.234,14.697,20.523,33.689,20.523,53.49c0,6.197-0.707,12.367-2.109,18.344l-3.184,13.582l10.938,8.65   c11.453,9.053,18.02,22.604,18.02,37.174c0,5.283-0.883,10.363-2.484,15.109c-12.199,11.07-28.387,17.816-46.152,17.816   c-14.102,0-28.461-2.279-39.648-9.125c-4.086-6.998-6.426-15.131-6.426-23.801c0-8.223,2.109-15.957,5.813-22.699l-23.16-2.154   c-2.969,7.721-4.609,16.094-4.609,24.854c0,10.15,2.191,19.787,6.117,28.477c-11.391,3.301-23.441,4.449-36.672,4.449   c-21.723,0-42.063-5.916-59.504-16.219c-14.504,15.264-34.992,24.777-57.703,24.777c-21.125,0-40.324-8.234-54.57-21.664   c-2.82-6.84-4.375-14.324-4.375-22.164c0-20.449,10.578-38.469,26.551-48.891l-13.16-17.643   c-21.328,14.43-35.344,38.844-35.344,66.533c0,3.367,0.211,6.678,0.617,9.934c-16.168-0.547-30.871-6.826-42.156-16.877   c-1.504-4.51-2.328-9.33-2.328-14.34C87.754,187.463,96.637,172.27,110.938,164.207z" fill="#C9558C"/><path d="M472.551,173.084c1.758-7.5,2.691-15.32,2.691-23.357c0-52.438-39.605-95.621-90.531-101.287   C366.758,19.371,334.609,0,297.934,0c-32.309,0-61.105,15.037-79.781,38.496c-4.512-0.6-9.113-0.912-13.785-0.912   c-57.586,0-104.27,46.686-104.27,104.271c0,1.082,0.02,2.158,0.051,3.229c-20.5,11.566-34.348,33.549-34.348,58.766   c0,37.24,30.188,67.428,67.43,67.428c4.168,0,8.242-0.383,12.203-1.102c14.441,21.266,38.824,35.25,66.473,35.25   c22.91,0,43.582-9.602,58.207-24.996c17.598,10.391,38.113,16.355,60.027,16.355c20.523,0,39.816-5.234,56.637-14.43   c5.18,3.93,10.926,7.145,17.102,9.5c7.953,3.18,16.629,4.93,25.715,4.93c38.281,0,69.309-31.031,69.309-69.309   C498.902,205.424,488.602,185.777,472.551,173.084z" opacity="0.1"/><g><polygon fill="#FFCE54" points="348.473,250.533 244.219,219.49 175.391,403.902 227.762,398.676 168.23,512 334.355,362.918     277.785,362.918   "/><polygon fill="#F6BB42" points="278.055,362.5 246.543,362.918 280.445,261.605 326.285,293.746   "/><polygon fill="#F6BB42" points="334.355,362.918 294.84,362.918 168.23,512   "/></g><g><path d="M159.203,320.152c-22.996,0-44.453-11.379-57.395-30.438l-4.016-5.922l-7.035,1.289    c-3.359,0.617-6.805,0.93-10.234,0.93c-31.125,0-56.449-25.328-56.449-56.451c0-20.344,11.023-39.201,28.766-49.207l5.773-3.26    l-0.195-6.627c-0.035-1.127-0.047-2.051-0.047-2.904c0-51.439,41.848-93.293,93.293-93.293c4.102,0,8.258,0.27,12.348,0.811    l6.16,0.816l3.867-4.859c17.379-21.834,43.328-34.354,71.191-34.354c31.766,0,60.715,16.164,77.438,43.23l2.809,4.553l5.313,0.59    c46.047,5.123,80.77,43.977,80.77,90.377c0,7.037-0.805,14.053-2.402,20.854l-1.594,6.787l5.473,4.326    c14.102,11.15,22.188,27.836,22.188,45.787c0,32.16-26.168,58.328-58.332,58.328c-13.105,0-25.48-4.238-35.793-12.27l-5.703-4.438    l-6.332,3.484c-15.719,8.648-33.574,13.223-51.625,13.223c-19.184,0-38.012-5.129-54.445-14.832l-7.523-4.445l-6.016,6.336    C196.234,312.488,178.387,320.152,159.203,320.152z" fill="#EA6BA2"/><path d="M419.844,198.789c1.758-7.5,2.691-15.318,2.691-23.355c0-52.441-39.602-95.621-90.531-101.283    c-17.953-29.07-50.098-48.443-86.773-48.443c-32.309,0-61.105,15.035-79.781,38.492c-4.512-0.596-9.113-0.906-13.785-0.906    c-57.586,0-104.27,46.684-104.27,104.27c0,1.082,0.02,2.158,0.051,3.227c-20.5,11.566-34.348,33.551-34.348,58.771    c0,37.232,30.188,67.424,67.426,67.424c4.172,0,8.246-0.379,12.207-1.105c14.441,21.273,38.824,35.25,66.473,35.25    c22.91,0,43.578-9.602,58.207-24.996c17.598,10.391,38.109,16.359,60.027,16.359c20.523,0,39.816-5.234,56.637-14.434    c5.176,3.934,10.926,7.148,17.105,9.5c7.949,3.184,16.625,4.934,25.711,4.934c38.277,0,69.309-31.031,69.309-69.305    C446.199,231.129,435.898,211.484,419.844,198.789z M58.23,189.914l11.555-6.518l-0.395-13.252    c-0.031-1.021-0.043-1.838-0.043-2.582c0-21.988,8.559-42.66,24.109-58.207c15.547-15.545,36.215-24.109,58.207-24.109    c2.648,0,5.32,0.131,7.98,0.387c0.16,0.018,3.285,0.381,3.285,0.381c17.715,2.41,34.082,10.482,46.941,23.342    c11.883,11.881,19.68,26.754,22.695,42.924l22.586,2.498C250.426,116.121,224.539,84,189.434,70.35    c14.867-14.523,34.707-22.689,55.797-22.689c13.891,0,27.559,3.609,39.531,10.438c11.641,6.637,21.52,16.176,28.566,27.586    l0.633,1.023c7.32,12.246,11.242,26.279,11.242,40.926c0,0.281-0.008,0.561-0.008,0.844l21.918,2.037    c0.027-0.961,0.043-1.916,0.043-2.881c0-10.076-1.465-19.803-4.188-28.992c14.18,4.123,27.035,12.139,37.086,23.307    c13.238,14.693,20.527,33.686,20.527,53.486c0,6.195-0.707,12.367-2.113,18.346l-3.184,13.576l10.941,8.654    c11.449,9.053,18.02,22.604,18.02,37.178c0,5.279-0.883,10.359-2.484,15.105c-12.199,11.066-28.387,17.816-46.152,17.816    c-14.102,0-28.461-2.277-39.648-9.121c-4.086-7-6.43-15.135-6.43-23.801c0-8.225,2.113-15.961,5.816-22.703l-23.16-2.15    c-2.969,7.717-4.609,16.09-4.609,24.854c0,10.148,2.191,19.785,6.117,28.473c-11.391,3.301-23.445,4.449-36.672,4.449    c-21.727,0-42.063-5.918-59.508-16.219c-14.5,15.262-34.988,24.777-57.703,24.777c-21.121,0-40.32-8.234-54.57-21.664    c-2.816-6.836-4.371-14.32-4.371-22.164c0-20.449,10.578-38.469,26.551-48.891l-13.16-17.643    c-21.328,14.43-35.344,38.846-35.344,66.533c0,3.367,0.211,6.68,0.617,9.934c-16.168-0.543-30.875-6.826-42.156-16.877    c-1.504-4.51-2.328-9.33-2.328-14.336C35.051,213.17,43.934,197.98,58.23,189.914z" fill="#C9558C"/></g></g></svg>