<?xml version="1.0" ?><svg viewBox="0 0 64 64" xmlns="http://www.w3.org/2000/svg"><defs><style>.cls-1{fill:#0171ab;}.cls-2{fill:#9e5625;}.cls-3{fill:#8a4b20;}.cls-4{fill:#fcc29d;}.cls-5{fill:#c93d2d;}.cls-6{fill:#e6a749;}.cls-7{fill:#379435;}</style></defs><title/><g id="flat"><g data-name="&lt;Group&gt;" id="_Group_"><polygon class="cls-1" points="16.987 31.161 15.013 30.839 15.032 30.719 17.472 14.023 19.453 14.306 16.987 31.161"/><path class="cls-1" d="M44,50.54V61H32V48a2.018,2.018,0,0,1,.64-1.46A1.937,1.937,0,0,1,34,46h8a1.961,1.961,0,0,1,1.42.59A1.987,1.987,0,0,1,44,48Z"/><path class="cls-2" d="M43.37,37.8a3.6,3.6,0,0,0,.54-.64l.12.09V42.5a3.5,3.5,0,0,1-7,0V38.58l.06-.14A4.968,4.968,0,0,0,43.37,37.8Z"/><path class="cls-2" d="M44.01,39.02,37.08,32.1l-1.49-1.49a2,2,0,0,1,2.83-2.83l5.01,5.01.65.65a3.981,3.981,0,0,1,1.17,2.83,4.531,4.531,0,0,1-.94,2.57l-.23.26-.07-.07Z"/><path class="cls-3" d="M47.97,38.04a3.462,3.462,0,0,1-3.66.8,4.531,4.531,0,0,0,.94-2.57,3.981,3.981,0,0,0-1.17-2.83l-.65-.65.15-.16a3.5,3.5,0,0,1,4.39,5.41Z"/><path class="cls-4" d="M44.01,39.03a1.132,1.132,0,0,1-.1.13,3.6,3.6,0,0,1-.54.64,4.968,4.968,0,0,1-6.28.64,4.812,4.812,0,0,1-.79-.64,5,5,0,0,1,0-7.07,5.126,5.126,0,0,1,.78-.63Z"/><path class="cls-4" d="M44.01,50.54H44V48a1.987,1.987,0,0,0-.58-1.41l.42-.07,8.63-1.33,4.71-10.21a2,2,0,0,1,3.82.84,2.036,2.036,0,0,1-.18.83L55.65,47.84a2,2,0,0,1-1.51,1.14Z"/><path class="cls-4" d="M16.02,30.88a2,2,0,0,1,1.44,1.17l4.85,11.31,10.33,3.18A2.018,2.018,0,0,0,32,48v2.53L20.25,46.91A1.987,1.987,0,0,1,19,45.79L13.79,33.63a2,2,0,0,1,1.83-2.79A1.752,1.752,0,0,1,16.02,30.88Z"/><path class="cls-5" d="M12.09,7.94a5.992,5.992,0,0,1,2.96,1.62,9.36,9.36,0,0,1,2.38,4.89,5.5,5.5,0,0,1-1.17,4.81c-2.34,2.35-7.35,1.13-9.7-1.21A6,6,0,0,1,12.09,7.94Z"/><path class="cls-6" d="M19.95,7.76a9.234,9.234,0,0,0-2.46,6.68l-.06.01a9.36,9.36,0,0,0-2.38-4.89,5.992,5.992,0,0,0-2.96-1.62A6.006,6.006,0,0,1,23.2,6l.01.09A5.865,5.865,0,0,0,19.95,7.76Z"/><path class="cls-7" d="M28.44,7.76a6,6,0,0,1,0,8.48c-2.35,2.35-7.36,3.56-9.7,1.21a4.624,4.624,0,0,1-1.25-3.01,9.234,9.234,0,0,1,2.46-6.68,5.865,5.865,0,0,1,3.26-1.67A5.941,5.941,0,0,1,28.44,7.76Z"/></g></g><g data-name="outline cut copy" id="outline_cut_copy"><path d="M45,61V51.394L54.3,49.965a3,3,0,0,0,2.268-1.708l5.161-11.184a3,3,0,0,0-5.45-2.514L51.789,44.28,43.864,45.5a4.462,4.462,0,0,0,1.17-3V40.018a4.488,4.488,0,1,0-1.47-8.509l-4.433-4.433a3.072,3.072,0,0,0-4.243,0,3,3,0,0,0,0,4.243l.707.707h0a6.007,6.007,0,0,0,0,8.485c.136.137.293.238.439.359V42.5A4.474,4.474,0,0,0,36.8,45H34a2.96,2.96,0,0,0-1.539.439l-9.414-2.9L18.382,31.657a2.962,2.962,0,0,0-1.264-1.408l1.643-11.5a6.135,6.135,0,0,0,3.475.977,9.309,9.309,0,0,0,1.513-.128,10.2,10.2,0,0,0,5.393-2.643A7,7,0,0,0,24.192,5c-.151,0-.3.012-.45.022a6.983,6.983,0,0,0-12.4,1.812c-.179-.014-.358-.026-.539-.026a7,7,0,0,0-4.95,11.949A10.187,10.187,0,0,0,11.251,21.4a9.313,9.313,0,0,0,1.513.129,5.967,5.967,0,0,0,3.749-1.2l-1.364,9.552a2.962,2.962,0,0,0-.7.2,3,3,0,0,0-1.576,3.939l5.213,12.162a3,3,0,0,0,1.875,1.685L31,51.266V61a1,1,0,0,0,1,1H44A1,1,0,0,0,45,61Zm7.623-14.825a1,1,0,0,0,.756-.57L58.091,35.4a1,1,0,0,1,1.327-.489,1,1,0,0,1,.489,1.327L54.746,47.418a1,1,0,0,1-.756.57L45,49.371V48a2.949,2.949,0,0,0-.073-.641ZM47.262,33.793a2.489,2.489,0,0,1-1.338,4.222,4.87,4.87,0,0,0-.832-4.912A2.505,2.505,0,0,1,47.262,33.793ZM24.192,7a5,5,0,0,1,3.536,8.536,8.261,8.261,0,0,1-4.3,2.084,4.543,4.543,0,0,1-3.98-.872,4.543,4.543,0,0,1-.871-3.979,8.261,8.261,0,0,1,2.084-4.3A4.969,4.969,0,0,1,24.192,7ZM18,4a5.016,5.016,0,0,1,3.572,1.508A6.989,6.989,0,0,0,19.243,7.05,9.655,9.655,0,0,0,17.084,10.6a8.67,8.67,0,0,0-1.327-1.745,6.977,6.977,0,0,0-2.451-1.586A4.981,4.981,0,0,1,18,4ZM15.556,18.555a4.544,4.544,0,0,1-3.98.872,8.254,8.254,0,0,1-4.3-2.084,5,5,0,0,1,7.071-7.071,8.261,8.261,0,0,1,2.084,4.3A4.543,4.543,0,0,1,15.556,18.555ZM31,48v1.174L20.544,45.956a1,1,0,0,1-.625-.562L14.706,33.232a1,1,0,0,1,.526-1.313,1,1,0,0,1,1.312.525l4.849,11.311a.993.993,0,0,0,.625.561l9.128,2.81A2.975,2.975,0,0,0,31,48Zm5.3-19.51a1,1,0,0,1,1.414,0l5.657,5.656a3.005,3.005,0,0,1,.587,3.416l-6.173-6.173L36.3,29.9h0a1,1,0,0,1,0-1.413Zm.707,4.949L42.666,39.1a4,4,0,0,1-5.657-5.657ZM43,60H33V48a1,1,0,0,1,1-1h8a1,1,0,0,1,1,1Zm.033-17.5a2.5,2.5,0,0,1-5,0v-.539a5.784,5.784,0,0,0,5-.628Z"/></g></svg>