<?xml version="1.0" ?><svg viewBox="0 0 64 64" xmlns="http://www.w3.org/2000/svg"><defs><style>.cls-1{fill:#ffdfc4;}.cls-2{fill:#ffcb5a;}.cls-3{fill:#168de2;}.cls-4{fill:#e76e54;}.cls-5{fill:#d95354;}.cls-6{fill:#e0b34f;}.cls-7{fill:#242424;}.cls-8{fill:#1277bf;}.cls-9{fill:none;stroke:#000;stroke-linejoin:round;stroke-width:2px;}</style></defs><title/><g data-name="Layer 1 copy" id="Layer_1_copy"><path class="cls-1" d="M57,34v2a5,5,0,0,1-9.91.91A4.6,4.6,0,0,1,47,36V33a5,5,0,0,1,5-5,4.619,4.619,0,0,1,.99.1H53a3.392,3.392,0,0,1,.43.11A4.97,4.97,0,0,1,57,33Z"/><path class="cls-1" d="M7,34v2a5,5,0,0,0,10,0V33a5,5,0,0,0-5-5,4.619,4.619,0,0,0-.99.1H11A4.98,4.98,0,0,0,7,33Z"/><path class="cls-1" d="M17,33H16a4.986,4.986,0,0,1-4.99-4.9A.34.34,0,0,1,11,28"/><polygon class="cls-2" points="27 7 38 7 38 3 13 3 13 19 17 19 17 26 24 19 27 19 27 7"/><polygon class="cls-3" points="27 7 50 7 50 23 47 23 47 30 40 23 27 23 27 7"/><path class="cls-4" d="M57,26a4,4,0,0,1,0,8V33a4.97,4.97,0,0,0-3.57-4.79A3.976,3.976,0,0,1,57,26Z"/><path class="cls-5" d="M57,33v1l-1.52-.38a3,3,0,0,1-.48-.16A3.98,3.98,0,0,1,53,30a3.876,3.876,0,0,1,.43-1.79A4.97,4.97,0,0,1,57,33Z"/><path class="cls-5" d="M52.99,28.1a7.2,7.2,0,0,1-2.11,5.02l-3.79,3.79A4.6,4.6,0,0,1,47,36V33a5,5,0,0,1,5-5A4.619,4.619,0,0,1,52.99,28.1Z"/><path class="cls-1" d="M53,30.44a3.271,3.271,0,0,0,2,3.02A3.989,3.989,0,0,0,57,34v2a5,5,0,0,1-9.91.91l3.79-3.79a7.2,7.2,0,0,0,2.11-5.02H53v2.34Z"/><path class="cls-1" d="M55,43.08V44a3,3,0,0,1-6,0v-.92A5.546,5.546,0,0,1,50,43h4A5.546,5.546,0,0,1,55,43.08Z"/><path class="cls-2" d="M57,61H43V50a6.979,6.979,0,0,1,6-6.92V44a3,3,0,0,0,6,0v-.92A6.979,6.979,0,0,1,61,50V61Z"/><rect class="cls-6" height="11" width="2" x="46" y="50"/><rect class="cls-6" height="11" width="2" x="56" y="50"/><path class="cls-7" d="M11,28.1v2.34a3.274,3.274,0,0,1-2.48,3.18L7,34V33a4.98,4.98,0,0,1,4-4.9Z"/><path class="cls-7" d="M17,33H16a4.986,4.986,0,0,1-4.99-4.9A4.619,4.619,0,0,1,12,28,5,5,0,0,1,17,33Z"/><path class="cls-1" d="M17,33v3A5,5,0,0,1,7,36V34l1.52-.38A3.274,3.274,0,0,0,11,30.44V28.1h.01A4.986,4.986,0,0,0,16,33Z"/><path class="cls-1" d="M15,43.08V51a3,3,0,0,1-6,0V43.08A5.474,5.474,0,0,1,10,43h4A5.474,5.474,0,0,1,15,43.08Z"/><path class="cls-3" d="M17,61H3V50a6.979,6.979,0,0,1,6-6.92V44a3,3,0,0,0,6,0v-.92A6.979,6.979,0,0,1,21,50V61Z"/><rect class="cls-8" height="11" width="2" x="16" y="50"/><rect class="cls-8" height="11" width="2" x="6" y="50"/><rect class="cls-3" height="2" width="12" x="16" y="6"/><rect class="cls-3" height="2" width="12" x="16" y="10"/><rect class="cls-3" height="2" width="12" x="16" y="14"/><rect class="cls-2" height="2" width="17" x="30" y="10"/><rect class="cls-2" height="2" width="17" x="30" y="14"/><rect class="cls-2" height="2" width="17" x="30" y="18"/></g><g data-name="Layer 1 copy 2" id="Layer_1_copy_2"><line class="cls-9" x1="47" x2="47" y1="50" y2="61"/><rect class="cls-9" height="13" rx="5" ry="5" width="10" x="47" y="28"/><path class="cls-9" d="M50,43h4a7,7,0,0,1,7,7V61a0,0,0,0,1,0,0H43a0,0,0,0,1,0,0V50A7,7,0,0,1,50,43Z"/><path class="cls-9" d="M47,37l3.879-3.879A7.242,7.242,0,0,0,53,28h0"/><path class="cls-9" d="M53,28v2.44a3.279,3.279,0,0,0,2.483,3.181L57,34"/><circle class="cls-9" cx="57" cy="30" r="4"/><line class="cls-9" x1="57" x2="57" y1="50" y2="61"/><path class="cls-9" d="M49,43v1a3,3,0,0,0,3,3h0a3,3,0,0,0,3-3V43"/><rect class="cls-9" height="13" rx="5" ry="5" transform="translate(24 69) rotate(180)" width="10" x="7" y="28"/><path class="cls-9" d="M3,43H21a0,0,0,0,1,0,0V54a7,7,0,0,1-7,7H10a7,7,0,0,1-7-7V43A0,0,0,0,1,3,43Z" transform="translate(24 104) rotate(-180)"/><path class="cls-9" d="M17,33H16a5,5,0,0,1-5-5h0"/><path class="cls-9" d="M11,28v2.44a3.279,3.279,0,0,1-2.483,3.181L7,34"/><line class="cls-9" x1="17" x2="17" y1="50" y2="61"/><line class="cls-9" x1="7" x2="7" y1="50" y2="61"/><path class="cls-9" d="M15,43v1a3,3,0,0,1-3,3h0a3,3,0,0,1-3-3V43"/><line class="cls-9" x1="16" x2="28" y1="7" y2="7"/><line class="cls-9" x1="16" x2="28" y1="11" y2="11"/><line class="cls-9" x1="16" x2="28" y1="15" y2="15"/><line class="cls-9" x1="47" x2="30" y1="11" y2="11"/><line class="cls-9" x1="47" x2="30" y1="15" y2="15"/><line class="cls-9" x1="47" x2="30" y1="19" y2="19"/><polygon class="cls-9" points="27 7 50 7 50 23 47 23 47 30 40 23 27 23 27 7"/><polygon class="cls-9" points="27 7 38 7 38 3 13 3 13 19 17 19 17 26 24 19 27 19 27 7"/></g></svg>