<?xml version="1.0" ?><svg viewBox="0 0 64 64" xmlns="http://www.w3.org/2000/svg"><defs><style>.cls-1{fill:#21386e;}.cls-2{fill:#fcc29d;}.cls-3{fill:none;stroke:#000;stroke-linejoin:round;stroke-width:2px;}.cls-4{fill:#8a4b20;}.cls-5{fill:#c93d2d;}.cls-6{fill:#9e5625;}.cls-7{fill:#f4bb61;}.cls-8{fill:#379435;}.cls-9{fill:#0171ab;}.cls-10{fill:#b03527;}.cls-11{fill:#ebd0a4;}.cls-12{fill:#edaa80;}</style></defs><title/><g id="flat"><rect class="cls-1" height="5" width="8.562" x="28" y="35"/><path class="cls-1" d="M20,39H15V22l-.01-.05a3.846,3.846,0,0,0,.47-.08,3.7,3.7,0,0,0,.55-.14,2.469,2.469,0,0,0,.29-.1c.12-.04.25-.09.37-.14a.338.338,0,0,0,.12-.06,2.419,2.419,0,0,0,.36-.18c.15-.08.29-.16.43-.25a6.252,6.252,0,0,0,1.6-1.52,3.617,3.617,0,0,0,.22-.32c.07-.11.14-.23.21-.35A5.927,5.927,0,0,1,20.03,21v.67A1.841,1.841,0,0,0,20,22V33a1.983,1.983,0,0,0,.03.35V39Z"/><path class="cls-1" d="M11,21.1V39H1.03V21a6,6,0,0,1,6-6h1v.83A6.149,6.149,0,0,0,11,21.1Z"/><path class="cls-2" d="M14.21,22a6.182,6.182,0,0,1-6.18-6.17V8.22A4.912,4.912,0,0,1,8.18,7H18.33a4.912,4.912,0,0,1,.15,1.22,5.291,5.291,0,0,1-.68,2.59,6.155,6.155,0,0,1,2.58,5.02,6.089,6.089,0,0,1-.77,2.98c-.07.12-.14.24-.21.35a3.617,3.617,0,0,1-.22.32A6.252,6.252,0,0,1,17.58,21c-.14.09-.28.17-.43.25a2.419,2.419,0,0,1-.36.18.338.338,0,0,1-.12.06,2.349,2.349,0,0,1-.37.14,2.469,2.469,0,0,1-.29.1,3.7,3.7,0,0,1-.55.14,3.846,3.846,0,0,1-.47.08"/><line class="cls-3" x1="11.03" x2="14.03" y1="16" y2="15"/><line class="cls-3" x1="15.03" x2="18.03" y1="15" y2="16"/><path class="cls-1" d="M60,42V61H56V37h2v3A2.006,2.006,0,0,0,60,42Z"/><polygon class="cls-1" points="52 37 52 61 48 61 48 54 48 37 52 37"/><path class="cls-4" d="M51,6.5a3.88,3.88,0,0,1-.1.85,5.345,5.345,0,0,0-1.49,2.07,2.634,2.634,0,0,1-.57.31,4.942,4.942,0,0,0-1.75-2.65,2.428,2.428,0,0,0-.32-.24,3.527,3.527,0,0,0-.71-.39,2.388,2.388,0,0,0-.37-.15,4.708,4.708,0,0,0-1.18-.27h-.03A3,3,0,0,0,44.05,6,3.492,3.492,0,0,1,51,6.5Z"/><path class="cls-2" d="M48.84,9.73A5.323,5.323,0,0,1,49,11a5,5,0,0,1-10,0,3.44,3.44,0,0,1,.03-.46,1.1,1.1,0,0,1,.02-.18,4,4,0,0,1,.13-.62A3.61,3.61,0,0,0,40.5,10,3.5,3.5,0,0,0,44,6.5a3.87,3.87,0,0,0-.05-.49A.09.09,0,0,1,44,6h.05v.01c.14,0,.29.01.43.02h.03a5.784,5.784,0,0,1,1.18.27c.12.05.25.1.37.15a8.059,8.059,0,0,1,.71.39c.11.08.21.16.32.24a5.108,5.108,0,0,1,1.73,2.66C48.83,9.74,48.83,9.73,48.84,9.73Z"/><rect class="cls-2" height="7" width="4" x="44" y="54"/><path class="cls-5" d="M48,25V36H39a16.946,16.946,0,0,0,9-15Z"/><path class="cls-6" d="M44,6a.09.09,0,0,0-.05.01A3.87,3.87,0,0,1,44,6.5,3.5,3.5,0,0,1,40.5,10a3.61,3.61,0,0,1-1.32-.26,4,4,0,0,0-.13.62A4.991,4.991,0,0,1,44,6Z"/><path class="cls-5" d="M36,30.07a3,3,0,0,0-3-3H32a4.988,4.988,0,0,0,4.89-6.04L37,21h7a12.955,12.955,0,0,1-8,12Z"/><polygon class="cls-2" points="40 54 40 61 36 61 36 55 36 54 40 54"/><path class="cls-2" d="M36.89,21.03a5,5,0,1,1-8.43-2.49,4.141,4.141,0,0,1,.65-.54l1.671-1.437a3.564,3.564,0,0,1,2.539.687,4.993,4.993,0,0,1,3.57,3.78Z"/><path class="cls-7" d="M36,50v5H20V39h.03V33.35a2.044,2.044,0,0,0,.77,1.25l6.4,4.8a1.99,1.99,0,0,0,1.2.4V40H36Z"/><path class="cls-8" d="M36,30.07V33l-.92.38A1.994,1.994,0,0,0,33.87,35H28V30.07a3,3,0,0,1,3-3h2A3,3,0,0,1,36,30.07Z"/><path class="cls-6" d="M35,11v1l-6-2-5,2V11a3.974,3.974,0,0,1,2.15-3.54v.01c.14-.07.28-.14.43-.2a3.755,3.755,0,0,1,.89-.23A3.076,3.076,0,0,1,28,7h3a3.076,3.076,0,0,1,.53.04,3.755,3.755,0,0,1,.89.23c.15.06.29.13.43.2V7.46A3.989,3.989,0,0,1,35,11Z"/><path class="cls-4" d="M33,6.5a3.381,3.381,0,0,1-.15.96,2.08,2.08,0,0,0-.43-.19,3.331,3.331,0,0,0-.89-.23A3.076,3.076,0,0,0,31,7H28a3.076,3.076,0,0,0-.53.04,3.331,3.331,0,0,0-.89.23,2.08,2.08,0,0,0-.43.19A3.381,3.381,0,0,1,26,6.5a3.5,3.5,0,0,1,7,0Z"/><path class="cls-7" d="M32,27.07H31a3,3,0,0,0-3,3V35l-4-3V22a2.006,2.006,0,0,0-2-2l5.453-.016A4.995,4.995,0,0,0,32,27.07Z"/><path class="cls-2" d="M29.6,36.2a2,2,0,0,1-2.4,3.2l-6.4-4.8a2.044,2.044,0,0,1-.77-1.25V21.67a1.981,1.981,0,0,1,.56-1.08A1.955,1.955,0,0,1,22,20a2.006,2.006,0,0,1,2,2V32l4,3v.07h.09Z"/><polygon class="cls-2" points="30 55 30 61 28 61 26 61 26 55 30 55"/><rect class="cls-2" height="6" width="4" x="22" y="55"/><polygon class="cls-9" points="16.03 39 16.03 61 10.03 61 10.03 39 11 39 15 39 16.03 39"/><rect class="cls-9" height="22" width="6" x="4" y="39"/><path class="cls-6" d="M17.965,6a5.2,5.2,0,0,0-9.42,0H8.03V8h15V6Z"/><rect class="cls-5" height="2" width="6" x="22" y="60"/><rect class="cls-10" height="2" width="5" x="28" y="60"/><path class="cls-6" d="M60.39,7H55V5h5.39a2,2,0,0,0,1.668-.895l1.111-1.661,1.662,1.112-1.11,1.66A4,4,0,0,1,60.39,7Z"/><path class="cls-2" d="M54.5,5a6.465,6.465,0,0,0-4.252,1.592,6.388,6.388,0,0,0-1.765,2.452A6.5,6.5,0,1,0,54.5,5Z"/><polygon class="cls-11" points="33 45 33 43 32 43 32 42 30 42 30 43 29 43 29 45 30 45 30 46 32 46 32 45 33 45"/><polygon class="cls-11" points="28 48 26 48 26 49 25 49 25 51 26 51 26 52 28 52 28 51 29 51 29 49 28 49 28 48"/><polygon class="cls-11" points="36 48 34 48 34 49 33 49 33 51 34 51 34 52 36 52 36 51 37 51 37 49 36 49 36 48"/><path class="cls-12" d="M35,12v2a3.969,3.969,0,0,1-1.68,3.25,4.961,4.961,0,0,0-4.21.75H28a4,4,0,0,1-4-4V12l5-2Z"/><path class="cls-9" d="M36,38v-.78a1.924,1.924,0,0,0,.62-.14l.92-.39c.5-.21.98-.44,1.45-.69H48l.75.25.01.75a4.847,4.847,0,0,1-.31,5.39L48,43V54H36V38Z"/><path class="cls-2" d="M42.553,42.105l-.969.485-1.636-4.906A1,1,0,0,0,39,37H36v2h2.279l1.773,5.316a1,1,0,0,0,1.4.579l2-1Z"/><path class="cls-2" d="M34,36h0a2,2,0,0,1,1.077-2.615L36,33a12.963,12.963,0,0,0,8-12h4A16.952,16.952,0,0,1,37.538,36.692l-.923.385A2,2,0,0,1,34,36Z"/><path class="cls-7" d="M52,21h8L58,37H48V25A4,4,0,0,1,52,21Z"/><path class="cls-2" d="M62,23V40a2,2,0,0,1-4,0V23a2.015,2.015,0,0,1,2-2A2.006,2.006,0,0,1,62,23Z"/></g><g data-name="outline cut copy" id="outline_cut_copy"><rect height="1.999" transform="translate(-4.262 4.764) rotate(-18.453)" width="3.162" x="10.951" y="14.5"/><rect height="3.162" transform="translate(-3.4 26.282) rotate(-71.565)" width="1.999" x="15.533" y="13.919"/><polygon points="30 46 32 46 32 45 33 45 33 43 32 43 32 42 30 42 30 43 29 43 29 45 30 45 30 46"/><polygon points="28 48 26 48 26 49 25 49 25 51 26 51 26 52 28 52 28 51 29 51 29 49 28 49 28 48"/><path d="M62.059,4.109A2,2,0,0,1,60.4,5H55v.025C54.834,5.013,54.669,5,54.5,5a6.46,6.46,0,0,0-2.606.549,4.486,4.486,0,0,0-8.638-.5A6,6,0,1,0,48.789,14.6,6.5,6.5,0,1,0,59.179,7H60.4a3.993,3.993,0,0,0,3.328-1.781l1.109-1.664-1.664-1.11ZM42.9,7.174a2.493,2.493,0,0,1-2.337,1.82A3.993,3.993,0,0,1,42.9,7.174ZM44,15a4,4,0,0,1-4-4c0-.01,0-.018,0-.028a4.571,4.571,0,0,0,.5.028,4.507,4.507,0,0,0,4.454-3.865c.057.015.115.029.172.046.088.026.178.05.263.082a3.789,3.789,0,0,1,.421.19c.061.031.122.064.182.1a3.9,3.9,0,0,1,.419.278c.033.024.063.051.094.077a4,4,0,0,1,1.347,2.084c0,.007.007.012.009.019l0,.006c.02.078.046.153.061.232A3.962,3.962,0,0,1,48,11,4,4,0,0,1,44,15Zm5.11-7.129a6.013,6.013,0,0,0-3.712-2.7A2.49,2.49,0,0,1,50,6.5a2.559,2.559,0,0,1-.034.352A6.52,6.52,0,0,0,49.11,7.871ZM54.5,16A4.505,4.505,0,0,1,50,11.5a4.448,4.448,0,0,1,.264-1.459,4.464,4.464,0,0,0,1.483-2.075A4.455,4.455,0,0,1,54.5,7a4.5,4.5,0,0,1,0,9Z"/><path d="M60,20H52a4.948,4.948,0,0,0-3,1.026V21a1,1,0,0,0-1-1H37.627a5.744,5.744,0,0,0-2.588-3.078A4.955,4.955,0,0,0,36,14V11a4.981,4.981,0,0,0-2.039-4.006A3.79,3.79,0,0,0,34,6.5a4.5,4.5,0,0,0-9,0,3.79,3.79,0,0,0,.039.494A4.981,4.981,0,0,0,23,11v3a5,5,0,0,0,3.925,4.877,5.97,5.97,0,0,0,1.6,8.078A3.975,3.975,0,0,0,27,30.071V33l-2-1.5V22a3,3,0,0,0-3-3,2.964,2.964,0,0,0-1.2.254c-.033-.127-.07-.253-.11-.378a7.133,7.133,0,0,0-1.653-8.349,6.225,6.225,0,0,0,.443-2.3c0-.076-.008-.15-.011-.225h3.562V6H19.063A6.22,6.22,0,0,0,7.032,8.225V14a7.009,7.009,0,0,0-7,7V39a1,1,0,0,0,1,1H3V61a1,1,0,0,0,1,1h6l.016,0,.016,0h6a1,1,0,0,0,1-1V40H19V55a1,1,0,0,0,1,1h1v5a1,1,0,0,0,1,1H33V60H31V56h4v5a1,1,0,0,0,1,1h4a1,1,0,0,0,1-1V55h2v6a1,1,0,0,0,1,1h8a1,1,0,0,0,1-1V38h2V61a1,1,0,0,0,1,1h4a1,1,0,0,0,1-1V42.816A3,3,0,0,0,63,40V23A3,3,0,0,0,60,20ZM13.257,4a4.215,4.215,0,0,1,3.576,2H9.681A4.215,4.215,0,0,1,13.257,4ZM9,60H5V40H9Zm1-22H2.032V21a5.006,5.006,0,0,1,5-5h0c0,.1.016.2.022.294.007.115.013.229.025.342s.036.247.057.37.035.224.059.335.059.235.091.353.056.219.091.327.081.224.123.336.078.212.122.315.1.214.155.32.1.2.15.3.122.2.184.3.115.19.177.282.141.189.212.282.131.178.2.263.159.176.239.263.146.163.224.24.176.161.265.241.159.148.243.216.193.146.29.218l.035.026Zm5.032,22h-4V40h4ZM12,38V22.649l.091.032c.136.042.276.073.415.107.09.022.176.049.267.067.157.032.318.052.479.074.076.01.151.026.228.034.171.017.346.022.52.027V38Zm7.032-16.319A3.049,3.049,0,0,0,19,22V33c0,.092.024.181.032.273V36H19v2H16V22.765c.083-.021.166-.04.248-.065.117-.035.231-.076.345-.117s.2-.069.3-.109.214-.093.32-.142.2-.094.3-.145.189-.1.283-.158.21-.124.312-.19c.081-.053.161-.108.239-.164.11-.077.217-.157.322-.24.067-.054.134-.109.2-.166s.111-.088.164-.136Zm-.469-3.087c-.04.064-.079.129-.122.19a5.143,5.143,0,0,1-.564.683c-.021.022-.046.04-.067.061a5.279,5.279,0,0,1-.617.509c-.063.045-.126.089-.191.13a5.09,5.09,0,0,1-.772.42l-.053.019a5.24,5.24,0,0,1-.809.252c-.08.018-.16.034-.24.049a5.123,5.123,0,0,1-6.1-5.082v-7.6c0-.077.019-.149.023-.225h8.4c0,.076.022.148.022.225a4.227,4.227,0,0,1-.553,2.087,1,1,0,0,0,.286,1.307,5.191,5.191,0,0,1,2.168,4.206A5.128,5.128,0,0,1,18.563,18.594ZM38,22.071c0-.024,0-.047,0-.071h4.959A11.951,11.951,0,0,1,37,31.386V30.071a3.975,3.975,0,0,0-1.523-3.116A5.955,5.955,0,0,0,38,22.071ZM29.5,4a2.5,2.5,0,0,1,2.467,2.1A4.971,4.971,0,0,0,31,6H28a4.971,4.971,0,0,0-.967.1A2.5,2.5,0,0,1,29.5,4ZM26.6,8.362s.011,0,.016-.005A2.957,2.957,0,0,1,28,8h3a2.957,2.957,0,0,1,1.382.357.277.277,0,0,0,.026.01A2.99,2.99,0,0,1,33.96,10.6L29.316,9.052a.991.991,0,0,0-.687.019L25.05,10.5A2.989,2.989,0,0,1,26.6,8.362ZM25,14V12.677l4.031-1.613L34,12.72V14a2.983,2.983,0,0,1-.945,2.174A6,6,0,0,0,28.813,17H28A3,3,0,0,1,25,14Zm3,8.071a3.975,3.975,0,0,1,1.172-2.829,3.781,3.781,0,0,1,.3-.242H31a4.932,4.932,0,0,0,2.43-.658,3.993,3.993,0,0,1,1.4,6.557,4.093,4.093,0,0,1-5.656,0A3.969,3.969,0,0,1,28,22.071Zm7,8v2.262l-.309.129A2.98,2.98,0,0,0,33.12,34H29V30.071a2,2,0,0,1,2-2h2A2,2,0,0,1,35,30.071Zm-13.968-8.23A.988.988,0,0,1,22,21a1,1,0,0,1,1,1V32a1,1,0,0,0,.4.8l3.813,2.86a.977.977,0,0,0,.46.345L29,37a1,1,0,0,1,.2,1.4,1,1,0,0,1-1.4.2l-6.4-4.8a1,1,0,0,1-.368-.665ZM25,60H23V56h2Zm4,0H27V56h2Zm6-12H34v1H33v2h1v1h1v2H21V39.16a.944.944,0,0,0,.032-.16V36.024L26.6,40.2a2.961,2.961,0,0,0,1.4.568V41h7Zm0-9H31.142a2.922,2.922,0,0,0-.306-2.929h2.146A2.757,2.757,0,0,0,35,38.107Zm-.077-3.385a1,1,0,0,1,.538-1.307l.924-.385A13.958,13.958,0,0,0,44.965,22h2a15.955,15.955,0,0,1-9.816,13.77l-.923.384A1,1,0,0,1,34.923,35.615ZM47,29.241V35H42.313A17.909,17.909,0,0,0,47,29.241ZM39,60H37V55h2Zm8,0H45V55h2Zm.654-18.2-.454.6a1,1,0,0,0-.2.6V53H37V39h1.279l1.773,5.316a1,1,0,0,0,1.4.579l2-1-.894-1.79-.969.485-1.636-4.906a.987.987,0,0,0-.761-.654l.054-.03h8.3A3.9,3.9,0,0,1,47.654,41.8ZM51,60H49V43.333l.254-.339A5.907,5.907,0,0,0,50.239,38H51ZM49.294,36c-.089-.123-.194-.237-.294-.354V25a3,3,0,0,1,3-3h5.184A2.966,2.966,0,0,0,57,23V36H49.294ZM59,60H57V40a2.941,2.941,0,0,0,.056.551c.01.056.026.109.039.164a3.15,3.15,0,0,0,.113.361c.022.056.044.111.069.166a2.991,2.991,0,0,0,.184.339c.026.042.049.085.076.125a3.14,3.14,0,0,0,.333.4c.021.021.045.037.066.058a3.017,3.017,0,0,0,.338.279c.046.033.094.061.141.091a3.071,3.071,0,0,0,.329.179c.052.024.1.047.155.068.035.014.066.033.1.045Zm2-20a1,1,0,0,1-2,0V23a1,1,0,0,1,2,0Z"/></g></svg>