<?xml version="1.0" encoding="UTF-8"?>
<svg width="61px" height="61px" viewBox="0 0 61 61" version="1.1" xmlns="http://www.w3.org/2000/svg" xmlns:xlink="http://www.w3.org/1999/xlink">
    <!-- Generator: Sketch 50.2 (55047) - http://www.bohemiancoding.com/sketch -->
    <title>if_instagram_online_social_media_photo_734395</title>
    <desc>Created with Sketch.</desc>
    <defs>
        <filter x="-0.8%" y="-0.8%" width="103.3%" height="103.3%" filterUnits="objectBoundingBox" id="filter-1">
            <feOffset dx="1" dy="1" in="SourceAlpha" result="shadowOffsetOuter1"></feOffset>
            <feColorMatrix values="0 0 0 0 1   0 0 0 0 1   0 0 0 0 1  0 0 0 1 0" type="matrix" in="shadowOffsetOuter1" result="shadowMatrixOuter1"></feColorMatrix>
            <feMerge>
                <feMergeNode in="shadowMatrixOuter1"></feMergeNode>
                <feMergeNode in="SourceGraphic"></feMergeNode>
            </feMerge>
        </filter>
    </defs>
    <g id="Symbols" stroke="none" stroke-width="1" fill="none" fill-rule="evenodd">
        <g id="Footer" transform="translate(-554.000000, -141.000000)" fill-rule="nonzero">
            <g id="if_instagram_online_social_media_photo_734395" filter="url(#filter-1)" transform="translate(554.000000, 141.000000)">
                <path d="M30,0 C13.430625,0 0,13.430625 0,30 C0,46.5675 13.430625,60 30,60 C46.569375,60 60,46.5675 60,30 C60,13.430625 46.569375,0 30,0 Z" id="Shape" fill="#F1D18A"></path>
                <path d="M41.2516239,15 L18.750232,15 C16.6327162,15 15,16.6327162 15,18.7502322 L15,41.2497678 C15,43.3672838 16.6327162,45 18.750232,45 L41.2497664,45 C43.3672823,45 44.9999984,43.3672838 44.9999984,41.2497678 L44.9999984,18.7502322 C45.0018559,16.6308588 43.3672823,15 41.2516239,15 Z M30.0232176,24.107176 C33.3499464,24.107176 36.0469929,26.7206365 36.0469929,29.9433472 C36.0469929,33.1660578 33.3499464,35.7795183 30.0232176,35.7795183 C26.6983462,35.7795183 24.0012998,33.1642004 24.0012998,29.9433472 C24.0012998,26.718779 26.6983462,24.107176 30.0232176,24.107176 Z M41.2516239,40.3117454 C41.2516239,40.9692898 40.9711459,41.2497678 40.3136015,41.2497678 L19.6882544,41.2497678 C19.0325674,41.2497678 18.750232,40.9692898 18.750232,40.3117454 L18.750232,27.1868615 L21.0869293,27.6958083 C20.8361708,28.5112377 20.7005755,29.3731038 20.7005755,30.2684044 C20.7005755,35.2538543 24.8761681,39.3012817 30.0213601,39.3012817 C35.170267,39.3012817 39.3440022,35.2557117 39.3440022,30.2684044 C39.3440022,29.3731038 39.2084069,28.5112377 38.9576484,27.6958083 L41.2497664,27.1868615 L41.2497664,40.3117454 L41.2516239,40.3117454 Z M41.2516239,23.4366293 C41.2516239,23.9548635 40.8318357,24.3746517 40.3136015,24.3746517 L36.5633696,24.3746517 C36.0451354,24.3746517 35.6253472,23.9548635 35.6253472,23.4366293 L35.6253472,19.6863971 C35.6253472,19.168163 36.0451354,18.7483747 36.5633696,18.7483747 L40.3136015,18.7483747 C40.8318357,18.7483747 41.2516239,19.168163 41.2516239,19.6863971 L41.2516239,23.4366293 Z" id="Shape" fill="#FFFFFF"></path>
            </g>
        </g>
    </g>
</svg>