<?xml version="1.0" ?><svg viewBox="0 0 64 64" xmlns="http://www.w3.org/2000/svg"><defs><style>.cls-1{fill:#0171ab;}.cls-2{fill:#c93d2d;}.cls-3{fill:#fcc29d;}.cls-4{fill:#21386e;}.cls-5{fill:#379435;}.cls-6{fill:#e6a749;}.cls-7{fill:#9e5625;}.cls-8{fill:#8a4b20;}</style></defs><title/><g id="flat"><path class="cls-1" d="M63,58v4H59V60H52a6,6,0,0,1-6-6V46h4v8a2.006,2.006,0,0,0,2,2h9A2.006,2.006,0,0,1,63,58Z"/><path class="cls-2" d="M52,28V46H41V35.01c.12.01.24.01.36.01a13.965,13.965,0,0,0,5.71-1.23,1.995,1.995,0,0,0,.83-2.93,1.956,1.956,0,0,0-2.44-.73,9.709,9.709,0,0,1-4.33.87A3.992,3.992,0,0,1,45,28Z"/><path class="cls-3" d="M41,35.01a14.1,14.1,0,0,1-6.11-1.57,13.863,13.863,0,0,1-5.38-5.01,1.985,1.985,0,0,1,1.05-2.94l.12-.03L31,26l.36-.6a1.872,1.872,0,0,1,1.48.87A9.967,9.967,0,0,0,38.5,30.6a9.476,9.476,0,0,0,2.63.4,9.709,9.709,0,0,0,4.33-.87,1.956,1.956,0,0,1,2.44.73,1.995,1.995,0,0,1-.83,2.93,13.965,13.965,0,0,1-5.71,1.23C41.24,35.02,41.12,35.02,41,35.01Z"/><path class="cls-4" d="M41,42v4H38a2.006,2.006,0,0,0-2,2V60a2.006,2.006,0,0,1-2,2H29V58h3V48a6,6,0,0,1,6-6Z"/><path class="cls-5" d="M37,16l-5.64,9.4a.86.86,0,0,0-.16-.01,1.861,1.861,0,0,0-.52.07L25,16Z"/><path class="cls-3" d="M26.92,36.23a1.986,1.986,0,0,1,.06,2.69v.01a2,2,0,0,1-2.94.08A23.624,23.624,0,0,1,21,35.09V23a.57.57,0,0,0-.01-.13A22.416,22.416,0,0,0,26.92,36.23Z"/><rect class="cls-4" height="25" width="4" x="17" y="36"/><polygon class="cls-4" points="13 36 13 61 9 61 9 40 9 36 13 36"/><path class="cls-6" d="M21,35.09V36H9V21h2.19c.13.01.25.02.38.02s.24-.01.36-.02h7.09a1.5,1.5,0,0,1,.37.04,1.107,1.107,0,0,1,.26.07.694.694,0,0,1,.13.05,1.739,1.739,0,0,1,.5.31c.04.04.09.08.13.12a1.065,1.065,0,0,1,.2.23,1.135,1.135,0,0,1,.15.23.3.3,0,0,1,.04.08,2.19,2.19,0,0,1,.12.33,1.6,1.6,0,0,1,.07.38v.03A.57.57,0,0,1,21,23Z"/><path class="cls-3" d="M9,36v4a2,2,0,0,1-4,0V23a2.015,2.015,0,0,1,2-2,2.006,2.006,0,0,1,2,2Z"/><path class="cls-7" d="M52.39,14H47V12h5.39a2,2,0,0,0,1.668-.895l1.111-1.661,1.662,1.112-1.11,1.66A4,4,0,0,1,52.39,14Z"/><circle class="cls-3" cx="46.5" cy="18.5" r="6.5"/><path class="cls-8" d="M5.97,6.53A3.492,3.492,0,0,0,7.99,9.7c1.98,0,4.95-3.67,4.95-3.67a3.5,3.5,0,0,0-6.97.5Z"/><path class="cls-7" d="M12.94,6.03A5.007,5.007,0,0,0,8.13,9.77c-.02.09-.04.17-.06.26h11.9a2.015,2.015,0,0,0,2-2,2.006,2.006,0,0,0-2-2H12.94Z"/><path class="cls-7" d="M7.97,11.03v6.5a3.517,3.517,0,0,0,3.5,3.5,3.5,3.5,0,0,0,3.5-3.5V15.62a5.106,5.106,0,0,1-2,.41A5,5,0,0,1,7.97,11.03Z"/><path class="cls-3" d="M8.07,10.03a4.712,4.712,0,0,0-.1,1,5,5,0,0,0,5,5,5.106,5.106,0,0,0,2-.41v-.01a5,5,0,0,0,3-4.58,4.712,4.712,0,0,0-.1-1Z"/></g><g data-name="outline cut copy" id="outline_cut_copy"><path d="M16,61a1,1,0,0,0,1,1h4a1,1,0,0,0,1-1V38.167c.427.526.856,1.05,1.318,1.535a2.963,2.963,0,0,0,2.143.914h.062a3.021,3.021,0,0,0,2.212-1.033,2.985,2.985,0,0,0-.094-4.041A21.49,21.49,0,0,1,21.99,22.756c0-.066-.024-.127-.034-.192-.013-.09-.027-.179-.048-.267a3.122,3.122,0,0,0-.1-.32c-.026-.069-.048-.139-.079-.205a2.845,2.845,0,0,0-.2-.369c-.022-.035-.041-.071-.064-.1a2.968,2.968,0,0,0-.334-.406l-.016-.017A2.962,2.962,0,0,0,19.009,20H15.293a4.478,4.478,0,0,0,.748-2.516l-.01-1.311a6,6,0,0,0,2.961-5.209h0l1-.008a3,3,0,0,0-.024-6h-.022L13.68,5A4.495,4.495,0,0,0,4.959,6.567a4.485,4.485,0,0,0,2.079,3.752A5.376,5.376,0,0,0,7.05,11.8a.96.96,0,0,0-.05.257l.041,5.5a4.456,4.456,0,0,0,.867,2.6A2.937,2.937,0,0,0,7,20a3,3,0,0,0-3,3V40a3,3,0,0,0,3,3,2.966,2.966,0,0,0,1-.184V61a1,1,0,0,0,1,1h4a1,1,0,0,0,1-1V37h2Zm6-30.4a22.6,22.6,0,0,0,4.191,6.319,1,1,0,0,1,.036,1.351,1.025,1.025,0,0,1-.746.346.958.958,0,0,1-.714-.293A24.08,24.08,0,0,1,22,34.778ZM20,60H18V37h2ZM19.962,6.955h.008a1,1,0,0,1,.009,2h0l-2.094.016h-.008l-8.727.065a3,3,0,0,1,2.814-2.021ZM8,36v4a1,1,0,0,1-2,0V23a1,1,0,0,1,2,0ZM7.43,7.982A2.494,2.494,0,0,1,9.44,4.034h.019a2.5,2.5,0,0,1,2.013,1.032A4.987,4.987,0,0,0,7.43,7.982Zm1.563,3.055,8-.059a4.016,4.016,0,0,1-3.97,4.03h-.028l-.015,0a3.9,3.9,0,0,1-.73-.073c-.1-.018-.186-.049-.278-.074a4.044,4.044,0,0,1-.422-.131c-.1-.039-.2-.088-.3-.136A3.818,3.818,0,0,1,10.9,14.4c-.092-.057-.181-.119-.269-.183-.11-.081-.215-.168-.316-.259-.075-.068-.149-.136-.219-.21a4.158,4.158,0,0,1-.288-.346c-.054-.071-.11-.139-.158-.212a3.98,3.98,0,0,1-.254-.462c-.03-.061-.065-.117-.092-.18A3.974,3.974,0,0,1,8.993,11.037Zm.048,6.5L9.025,15.5c.012.01.027.018.039.028a5.993,5.993,0,0,0,.784.577l.081.049a6.1,6.1,0,0,0,.888.437l.08.029a5.97,5.97,0,0,0,.971.276l.076.011a5.949,5.949,0,0,0,1.049.1h.045a6.115,6.115,0,0,0,.924-.086c.025,0,.05,0,.074-.007l.005.585A2.5,2.5,0,0,1,11.73,20h-.382a2.478,2.478,0,0,1-2.307-2.463ZM12,60H10V37h2Zm1-25H10V22h1.348c.065,0,.127.019.192.019h.035c.059,0,.113-.016.171-.019H19a.993.993,0,0,1,.7.287c.023.023.037.053.058.078a1.025,1.025,0,0,1,.15.223,1.061,1.061,0,0,1,.041.152A.939.939,0,0,1,20,23V35H13Z"/><path d="M55.723,12.219l1.109-1.664-1.664-1.11-1.109,1.664A2,2,0,0,1,52.4,12H47v.025c-.166-.012-.331-.025-.5-.025a6.52,6.52,0,1,0,4.679,2H52.4A3.993,3.993,0,0,0,55.723,12.219ZM46.5,23A4.5,4.5,0,1,1,51,18.5,4.505,4.505,0,0,1,46.5,23Z"/><path d="M61,55H52a1,1,0,0,1-1-1V47h1a1,1,0,0,0,1-1V28a1,1,0,0,0-1-1H45a5,5,0,0,0-4.568,2.966,8.977,8.977,0,0,1-6.742-4.217,2.776,2.776,0,0,0-.855-.864l5.022-8.37A1,1,0,0,0,37,15H25a1,1,0,0,0-.857,1.515l5.147,8.579a2.949,2.949,0,0,0-.628,3.874,14.957,14.957,0,0,0,5.769,5.365A15.275,15.275,0,0,0,40,35.935V41H38a7.009,7.009,0,0,0-7,7v9H29a1,1,0,0,0-1,1v4a1,1,0,0,0,1,1h5a3,3,0,0,0,3-3V48a1,1,0,0,1,1-1h7v7a7.009,7.009,0,0,0,7,7h6v1a1,1,0,0,0,1,1h4a1,1,0,0,0,1-1V58A3,3,0,0,0,61,55ZM40,45H38a3,3,0,0,0-3,3V60a1,1,0,0,1-1,1H30V59h2a1,1,0,0,0,1-1V48a5.006,5.006,0,0,1,5-5h2Zm5-16h.844a2.918,2.918,0,0,0-.8.221,9.006,9.006,0,0,1-2.156.657A2.99,2.99,0,0,1,45,29ZM26.767,17h8.466L31,24.057Zm8.577,15.554a12.952,12.952,0,0,1-4.99-4.653.882.882,0,0,1,.063-1.1.971.971,0,0,0,1.366-.193.779.779,0,0,1,.2.188,11,11,0,0,0,13.88,4.246.986.986,0,0,1,1.205.368,1.011,1.011,0,0,1,.129.839.981.981,0,0,1-.545.632A13.159,13.159,0,0,1,35.344,32.554ZM42,45V35.984a14.845,14.845,0,0,0,5.475-1.278A3,3,0,0,0,46.691,29H51V45H42ZM62,61H60V60a1,1,0,0,0-1-1H52a5.006,5.006,0,0,1-5-5V47h2v7a3,3,0,0,0,3,3h9a1,1,0,0,1,1,1Z"/></g></svg>