<?xml version="1.0" encoding="UTF-8"?>
<svg width="93px" height="73px" viewBox="0 0 93 73" version="1.1" xmlns="http://www.w3.org/2000/svg" xmlns:xlink="http://www.w3.org/1999/xlink">
    <!-- Generator: Sketch 50.2 (55047) - http://www.bohemiancoding.com/sketch -->
    <title>Oval 3 Copy 2</title>
    <desc>Created with Sketch.</desc>
    <defs></defs>
    <g id="Page-1" stroke="none" stroke-width="1" fill="none" fill-rule="evenodd">
        <g id="Desktop-HD" transform="translate(-909.000000, -160.000000)">
            <g id="Oval-3-Copy-2" transform="translate(906.000000, 149.000000)">
                <path d="M87.2046764,65.1389539 C88.4791728,65.2691885 89.8035181,64.5237949 91.1621143,63.2898684 C93.2466063,61.3966568 95.3913084,58.7068016 95.3913084,50.3900526 C95.3913084,40.2270983 91.0929707,29.7238002 87.5291701,24.8555997 C86.3500051,23.2448441 82.9775381,19.9506998 82.7796569,20.1634773 C82.5797717,20.3784098 82.3724682,24.3261268 81.6868251,28.401543 C81.2053274,31.2635328 80.4156419,34.0243829 80.0425708,36.261805 C79.3042179,40.6899342 77.3913084,45.823154 77.3913084,50.6190551 C77.3913084,64.1446555 83.9102833,64.802316 87.2046764,65.1389539 Z" fill="#8D19F5" transform="translate(86.391308, 42.653645) rotate(361.000000) translate(-86.391308, -42.653645) "></path>
                <path d="M31.5412759,52.3565924 C33.169799,52.5215561 34.862018,51.577391 36.598002,50.0144174 C39.2615196,47.6163494 42.0019723,44.2091994 42.0019723,33.6746507 C42.0019723,20.8015752 36.5096518,7.49739764 31.9559066,1.33101031 C30.4491958,-0.709280063 26.1399324,-4.88186288 25.8870843,-4.61234469 C25.6316753,-4.3400968 25.3667876,0.660344699 24.4906881,5.82253856 C23.875441,9.44772564 22.8663984,12.9448024 22.3896964,15.7788704 C21.4462455,21.387834 19.0019723,27.8899125 19.0019723,33.9647205 C19.0019723,51.0971477 27.3317735,51.9301844 31.5412759,52.3565924 Z" id="Oval-3-Copy-6" fill="#25BFC3" transform="translate(30.501972, 23.875201) rotate(659.000000) translate(-30.501972, -23.875201) "></path>
                <path d="M69.7242802,46.5813385 C70.6447498,46.6739497 71.6012214,46.1438921 72.5824297,45.2664332 C74.0878962,43.9201495 75.6368477,42.0073635 75.6368477,36.0932309 C75.6368477,28.8662412 72.5324927,21.3972292 69.9586367,17.9353977 C69.1070176,16.7899715 66.6713469,14.4474689 66.5284328,14.5987773 C66.3840712,14.7516183 66.234352,17.5588837 65.7391653,20.4569574 C65.391417,22.4921502 64.8210886,24.4554213 64.5516483,26.0464771 C64.0183935,29.1953689 62.6368477,32.8456586 62.6368477,36.2560771 C62.6368477,45.8742818 67.3449963,46.3419515 69.7242802,46.5813385 Z" id="Oval-3-Copy-4" fill="#D46B59" transform="translate(69.136848, 30.591785) rotate(354.000000) translate(-69.136848, -30.591785) "></path>
                <path d="M64.6804201,91.9346296 C63.546947,92.6992998 61.873064,92.7487132 59.8915767,92.402375 C56.8513838,91.8709888 53.3054589,90.6964939 48.6209541,83.6598219 C42.8965528,75.0611043 41.0505739,63.9671398 41.6830906,58.0181441 C41.8923732,56.0497828 43.2303202,51.5308254 43.5375446,51.609237 C43.8478805,51.6884428 46.2677748,54.9220901 49.21254,58.0181441 C51.2805222,60.19237 53.5833615,62.1227621 55.1968789,63.8242303 C58.390225,67.1916418 63.0929173,70.5524598 65.7942639,74.6101972 C73.4127145,86.0539974 67.610288,89.958065 64.6804201,91.9346296 Z" id="Oval-3-Copy-3" fill="#8D19F5" transform="translate(55.564788, 72.108230) rotate(286.000000) translate(-55.564788, -72.108230) "></path>
                <path d="M55.5904957,67.2553424 C54.8213532,67.7775562 53.6855041,67.811302 52.3409234,67.5747783 C50.2779354,67.2118804 47.8717721,66.4097864 44.6930009,61.6042543 C40.8085857,55.7319593 39.5559572,48.1555933 39.985165,44.0928646 C40.1271782,42.7486178 41.0350708,39.6625006 41.2435445,39.71605 C41.4541296,39.7701417 43.0962007,41.9784862 45.0944342,44.0928646 C46.4977079,45.5777017 48.0603488,46.8960183 49.1552356,48.0579966 C51.3221491,50.3576922 54.5132617,52.652885 56.3463183,55.4240227 C61.5159812,63.2393009 57.5786204,65.9054935 55.5904957,67.2553424 Z" id="Oval-3-Copy-5" fill="#8FD459" transform="translate(49.404888, 53.715362) rotate(290.000000) translate(-49.404888, -53.715362) "></path>
            </g>
        </g>
    </g>
</svg>