<?xml version="1.0" encoding="UTF-8"?>
<svg width="203px" height="187px" viewBox="0 0 203 187" version="1.1" xmlns="http://www.w3.org/2000/svg" xmlns:xlink="http://www.w3.org/1999/xlink">
    <!-- Generator: Sketch 50.2 (55047) - http://www.bohemiancoding.com/sketch -->
    <title>Star</title>
    <desc>Created with Sketch.</desc>
    <defs>
        <polygon id="path-1" points="96.2869781 108 75.7144942 118.506578 79.643489 96.2532889 63 80.4934222 86.0007362 77.2467111 96.2869781 57 106.57322 77.2467111 129.573956 80.4934222 112.930467 96.2532889 116.859462 118.506578"></polygon>
        <filter x="-5.3%" y="-5.7%" width="110.5%" height="111.4%" filterUnits="objectBoundingBox" id="filter-2">
            <feGaussianBlur stdDeviation="1.5" in="SourceAlpha" result="shadowBlurInner1"></feGaussianBlur>
            <feOffset dx="2" dy="2" in="shadowBlurInner1" result="shadowOffsetInner1"></feOffset>
            <feComposite in="shadowOffsetInner1" in2="SourceAlpha" operator="arithmetic" k2="-1" k3="1" result="shadowInnerInner1"></feComposite>
            <feColorMatrix values="0 0 0 0 0   0 0 0 0 0   0 0 0 0 0  0 0 0 0.5 0" type="matrix" in="shadowInnerInner1"></feColorMatrix>
        </filter>
    </defs>
    <g id="Page-1" stroke="none" stroke-width="1" fill="none" fill-rule="evenodd">
        <g id="Desktop-HD" transform="translate(-618.000000, -419.000000)">
            <g id="Star" transform="translate(624.000000, 425.000000)">
                <polygon stroke="#000000" stroke-width="11" fill="#F6EEB1" fill-rule="evenodd" points="95.5811799 145.175419 36.508762 174.57014 47.369222 111.541532 4.26325641e-14 66.67986 65.7845513 57.1207592 95.5811799 0 125.377809 57.1207592 191.16236 66.67986 143.793138 111.541532 154.653598 174.57014"></polygon>
                <g id="Star-2">
                    <use fill="#4C6F7B" fill-rule="evenodd" xlink:href="#path-1"></use>
                    <use fill="black" fill-opacity="1" filter="url(#filter-2)" xlink:href="#path-1"></use>
                    <use stroke="#000000" stroke-width="2" xlink:href="#path-1"></use>
                </g>
                <rect id="Rectangle-19" fill="#FFFFFF" fill-rule="evenodd" transform="translate(108.785141, 49.472964) rotate(-22.000000) translate(-108.785141, -49.472964) " x="106.785141" y="36.4729645" width="4" height="26" rx="2"></rect>
            </g>
        </g>
    </g>
</svg>