<?xml version="1.0" encoding="utf-8"?>
<!-- Generator: Adobe Illustrator 22.0.1, SVG Export Plug-In . SVG Version: 6.00 Build 0)  -->
<svg version="1.1" id="Layer_1" xmlns="http://www.w3.org/2000/svg" xmlns:xlink="http://www.w3.org/1999/xlink" x="0px" y="0px"
	 viewBox="0 0 153 594" style="enable-background:new 0 0 153 594;" xml:space="preserve">
<style type="text/css">
	.st0{fill:none;stroke:#4C6F7B;stroke-width:6;stroke-linecap:square;stroke-dasharray:12,17;}
	.st1{fill:#4C6F7B;}
	.st2{enable-background:new    ;}
	.st3{fill:#FFFFFF;}
</style>
<title>Group 7</title>
<desc>Created with Sketch.</desc>
<g id="Desktop">
	<g id="Services" transform="translate(-133.000000, -1364.000000)">
		<g id="Contents" transform="translate(0.000000, 958.000000)">
			<g id="Group-7" transform="translate(133.000000, 406.000000)">
				<path id="Line-5" class="st0" d="M76.5,122.5v347.1"/>
				<g id="Group">
					<circle id="Oval-2" class="st1" cx="76.5" cy="76.5" r="76.5"/>
					<g class="st2">
						<path class="st3" d="M52.8,69.2c-0.5-0.5-1.1-1-1.9-1.3s-1.7-0.5-2.7-0.5c-1.5,0-2.6,0.3-3.3,0.9c-0.7,0.6-1,1.3-1,2.3
							c0,0.5,0.1,0.9,0.3,1.3c0.2,0.3,0.5,0.6,0.9,0.9c0.4,0.2,0.9,0.4,1.5,0.6c0.6,0.2,1.3,0.4,2.1,0.5c0.9,0.2,1.7,0.4,2.4,0.6
							c0.7,0.2,1.3,0.5,1.8,0.9c0.5,0.4,0.9,0.8,1.2,1.3c0.3,0.5,0.4,1.2,0.4,1.9c0,0.8-0.2,1.5-0.5,2c-0.3,0.6-0.7,1.1-1.3,1.4
							c-0.5,0.4-1.2,0.7-1.9,0.9s-1.6,0.3-2.4,0.3c-2.7,0-5-0.8-6.8-2.5l0.8-1.4c0.6,0.7,1.5,1.2,2.5,1.7c1.1,0.5,2.2,0.7,3.5,0.7
							c1.4,0,2.4-0.2,3.2-0.7c0.8-0.5,1.2-1.2,1.2-2.2c0-0.5-0.1-1-0.3-1.3c-0.2-0.4-0.5-0.7-1-0.9c-0.4-0.3-1-0.5-1.6-0.7
							s-1.4-0.4-2.2-0.6c-0.9-0.2-1.7-0.4-2.4-0.6c-0.7-0.2-1.2-0.5-1.7-0.8c-0.5-0.3-0.8-0.7-1-1.2c-0.2-0.5-0.3-1.1-0.3-1.7
							c0-0.8,0.1-1.5,0.4-2.1c0.3-0.6,0.7-1.1,1.2-1.5c0.5-0.4,1.2-0.7,1.9-0.9c0.7-0.2,1.6-0.3,2.5-0.3c1.1,0,2.1,0.2,3,0.5
							c0.9,0.3,1.7,0.8,2.4,1.5L52.8,69.2z"/>
						<path class="st3" d="M63.2,82.4c-0.1,0-0.2,0.1-0.4,0.2s-0.4,0.2-0.6,0.2c-0.2,0.1-0.5,0.2-0.8,0.2c-0.3,0.1-0.6,0.1-1,0.1
							c-0.4,0-0.7,0-1-0.1c-0.3-0.1-0.6-0.2-0.8-0.4c-0.2-0.2-0.4-0.5-0.6-0.8c-0.1-0.3-0.2-0.7-0.2-1.1v-9H56v-1.3h1.7v-4.2h1.6
							v4.2h2.9v1.3h-2.9v8.5c0,0.5,0.2,0.8,0.5,1c0.3,0.2,0.6,0.3,1,0.3c0.5,0,0.9-0.1,1.2-0.2s0.6-0.3,0.7-0.3L63.2,82.4z"/>
						<path class="st3" d="M71,83.2c-0.9,0-1.8-0.2-2.5-0.5c-0.8-0.3-1.4-0.8-2-1.4c-0.6-0.6-1-1.3-1.3-2.1s-0.5-1.6-0.5-2.5
							c0-0.9,0.2-1.7,0.5-2.5c0.3-0.8,0.7-1.5,1.3-2s1.2-1,2-1.4c0.8-0.3,1.6-0.5,2.5-0.5c0.9,0,1.7,0.2,2.5,0.5
							c0.8,0.3,1.4,0.8,2,1.4c0.5,0.6,1,1.3,1.3,2c0.3,0.8,0.5,1.6,0.5,2.4c0,0.1,0,0.3,0,0.4s0,0.2,0,0.3H66.4
							c0,0.7,0.2,1.3,0.5,1.9c0.3,0.6,0.6,1.1,1,1.5c0.4,0.4,0.9,0.7,1.4,1c0.5,0.2,1.1,0.3,1.7,0.3c0.4,0,0.8-0.1,1.2-0.2
							c0.4-0.1,0.8-0.3,1.1-0.5c0.3-0.2,0.6-0.4,0.9-0.7s0.5-0.6,0.6-0.9l1.4,0.4c-0.2,0.5-0.5,0.9-0.8,1.3s-0.8,0.7-1.2,1
							s-1,0.5-1.5,0.6C72.1,83.2,71.5,83.2,71,83.2z M75.6,76.1c0-0.7-0.2-1.3-0.5-1.8c-0.3-0.6-0.6-1-1-1.4
							c-0.4-0.4-0.9-0.7-1.4-0.9c-0.5-0.2-1.1-0.3-1.7-0.3c-0.6,0-1.2,0.1-1.7,0.3c-0.5,0.2-1,0.5-1.4,0.9c-0.4,0.4-0.7,0.9-1,1.4
							c-0.2,0.6-0.4,1.2-0.4,1.8H75.6z"/>
						<path class="st3" d="M86.3,83.2c-1.1,0-2-0.3-2.8-0.8c-0.8-0.5-1.5-1.2-2-2v7.7h-1.6V70.5h1.5v2.4c0.5-0.8,1.2-1.4,2-1.9
							c0.8-0.5,1.7-0.7,2.7-0.7c0.9,0,1.7,0.2,2.4,0.5c0.7,0.4,1.4,0.8,1.9,1.4c0.5,0.6,0.9,1.3,1.2,2.1c0.3,0.8,0.4,1.6,0.4,2.4
							c0,0.9-0.1,1.7-0.4,2.5c-0.3,0.8-0.7,1.5-1.2,2.1s-1.1,1.1-1.8,1.4C87.9,83.1,87.2,83.2,86.3,83.2z M85.9,81.8
							c0.7,0,1.3-0.1,1.8-0.4s1-0.7,1.4-1.1c0.4-0.5,0.7-1,0.9-1.6c0.2-0.6,0.3-1.2,0.3-1.9c0-0.7-0.1-1.3-0.4-1.9
							c-0.2-0.6-0.6-1.1-1-1.6s-0.9-0.8-1.5-1.1c-0.6-0.3-1.2-0.4-1.8-0.4c-0.4,0-0.8,0.1-1.3,0.3s-0.9,0.4-1.3,0.7
							c-0.4,0.3-0.7,0.6-1,1c-0.3,0.4-0.5,0.8-0.5,1.2v3.8c0.2,0.4,0.4,0.9,0.7,1.2c0.3,0.4,0.6,0.7,1,1c0.4,0.3,0.8,0.5,1.2,0.7
							C85,81.7,85.4,81.8,85.9,81.8z"/>
						<path class="st3" d="M109.5,81.5V83h-8.1v-1.5h3.4V71.2c-0.1,0.2-0.4,0.4-0.7,0.6c-0.3,0.2-0.6,0.4-1,0.6
							c-0.4,0.2-0.8,0.4-1.2,0.5c-0.4,0.1-0.8,0.2-1.1,0.2v-1.6c0.4,0,0.8-0.1,1.2-0.3c0.4-0.2,0.9-0.4,1.2-0.7
							c0.4-0.3,0.7-0.5,1-0.8c0.3-0.2,0.4-0.4,0.5-0.5h1.7v12.2H109.5z"/>
					</g>
				</g>
				<g id="Group_1_" transform="translate(0.000000, 441.000000)">
					<circle id="Oval-2_1_" class="st1" cx="76.5" cy="76.5" r="76.5"/>
					<g class="st2">
						<path class="st3" d="M51.7,69.5c-0.2-0.2-0.4-0.4-0.8-0.6c-0.3-0.2-0.7-0.4-1.1-0.6c-0.4-0.2-0.8-0.3-1.3-0.4
							c-0.5-0.1-1-0.2-1.5-0.2c-1.3,0-2.3,0.2-2.9,0.7c-0.6,0.5-0.9,1.2-0.9,2c0,0.5,0.1,0.8,0.3,1.2s0.5,0.6,0.8,0.8
							c0.4,0.2,0.8,0.4,1.4,0.6s1.2,0.3,2,0.5c0.9,0.2,1.7,0.4,2.4,0.7c0.7,0.2,1.3,0.6,1.8,0.9s0.9,0.8,1.2,1.3
							c0.3,0.5,0.4,1.2,0.4,1.9c0,0.8-0.2,1.5-0.5,2.1c-0.3,0.6-0.8,1.1-1.3,1.5c-0.6,0.4-1.2,0.7-2,0.9c-0.8,0.2-1.6,0.3-2.4,0.3
							c-1.3,0-2.6-0.2-3.7-0.6c-1.2-0.4-2.2-1-3.2-1.8l1-1.8c0.3,0.3,0.6,0.5,1,0.8c0.4,0.3,0.9,0.5,1.4,0.7
							c0.5,0.2,1.1,0.4,1.7,0.5c0.6,0.1,1.2,0.2,1.9,0.2c1.2,0,2.2-0.2,2.8-0.6c0.7-0.4,1-1.1,1-1.9c0-0.5-0.1-0.9-0.3-1.2
							c-0.2-0.3-0.5-0.6-0.9-0.9c-0.4-0.2-0.9-0.5-1.5-0.6c-0.6-0.2-1.3-0.4-2.1-0.6c-0.9-0.2-1.6-0.4-2.3-0.7
							c-0.7-0.2-1.2-0.5-1.6-0.9s-0.8-0.7-1-1.2c-0.2-0.5-0.3-1.1-0.3-1.7c0-0.8,0.2-1.5,0.5-2.2s0.7-1.2,1.3-1.6
							c0.5-0.4,1.2-0.8,1.9-1c0.8-0.2,1.6-0.3,2.4-0.3c1.2,0,2.2,0.2,3.1,0.5c0.9,0.4,1.8,0.8,2.5,1.4L51.7,69.5z"/>
						<path class="st3" d="M62.6,82.4c-0.1,0.1-0.3,0.1-0.5,0.2c-0.2,0.1-0.4,0.2-0.7,0.3c-0.3,0.1-0.6,0.2-0.9,0.2
							c-0.3,0.1-0.6,0.1-1,0.1c-0.8,0-1.4-0.2-2-0.6s-0.8-1.1-0.8-2v-8.4H55v-1.7h1.7v-4.2h2.1v4.2h2.8v1.7h-2.8v7.8
							c0,0.5,0.2,0.8,0.5,1c0.3,0.2,0.6,0.3,1,0.3c0.4,0,0.8-0.1,1.1-0.2c0.3-0.1,0.6-0.2,0.7-0.3L62.6,82.4z"/>
						<path class="st3" d="M70.3,83.2c-0.9,0-1.8-0.2-2.6-0.5c-0.8-0.3-1.5-0.8-2-1.4c-0.6-0.6-1-1.3-1.3-2.1s-0.5-1.6-0.5-2.5
							s0.2-1.7,0.5-2.5s0.8-1.5,1.3-2.1c0.6-0.6,1.2-1.1,2-1.4c0.8-0.3,1.6-0.5,2.6-0.5c0.9,0,1.8,0.2,2.6,0.5
							c0.8,0.4,1.4,0.8,2,1.4s1,1.3,1.3,2c0.3,0.8,0.4,1.6,0.4,2.4c0,0.2,0,0.3,0,0.5c0,0.1,0,0.3,0,0.3H66.2c0,0.6,0.2,1.2,0.4,1.7
							c0.2,0.5,0.6,1,0.9,1.3c0.4,0.4,0.8,0.7,1.3,0.9c0.5,0.2,1,0.3,1.5,0.3c0.4,0,0.8-0.1,1.1-0.2c0.4-0.1,0.7-0.2,1-0.4
							c0.3-0.2,0.6-0.4,0.9-0.6c0.2-0.3,0.4-0.5,0.6-0.9l1.8,0.5c-0.2,0.5-0.5,0.9-0.9,1.3c-0.4,0.4-0.8,0.7-1.2,1
							c-0.5,0.3-1,0.5-1.6,0.7C71.5,83.2,70.9,83.2,70.3,83.2z M74.6,75.9c0-0.6-0.2-1.1-0.4-1.6c-0.2-0.5-0.6-0.9-0.9-1.3
							c-0.4-0.4-0.8-0.6-1.3-0.8c-0.5-0.2-1-0.3-1.6-0.3s-1.1,0.1-1.6,0.3c-0.5,0.2-0.9,0.5-1.3,0.8c-0.4,0.4-0.7,0.8-0.9,1.3
							c-0.2,0.5-0.4,1-0.4,1.6H74.6z"/>
						<path class="st3" d="M86.1,83.2c-1,0-2-0.3-2.7-0.8c-0.8-0.5-1.4-1.2-1.9-1.9v7.6h-2.1V70.5h1.9v2.4c0.5-0.8,1.1-1.4,1.9-1.9
							c0.8-0.5,1.7-0.7,2.6-0.7c0.9,0,1.7,0.2,2.4,0.5c0.7,0.4,1.3,0.8,1.9,1.4c0.5,0.6,0.9,1.3,1.2,2.1s0.4,1.6,0.4,2.4
							c0,0.9-0.1,1.7-0.4,2.5c-0.3,0.8-0.7,1.5-1.2,2.1s-1.1,1-1.8,1.4C87.6,83.1,86.9,83.2,86.1,83.2z M85.4,81.4
							c0.6,0,1.2-0.1,1.7-0.4c0.5-0.3,0.9-0.6,1.3-1.1c0.4-0.4,0.6-0.9,0.8-1.5c0.2-0.6,0.3-1.1,0.3-1.7c0-0.6-0.1-1.2-0.3-1.8
							c-0.2-0.6-0.5-1.1-0.9-1.5s-0.8-0.8-1.4-1c-0.5-0.2-1.1-0.4-1.7-0.4c-0.4,0-0.8,0.1-1.2,0.2c-0.4,0.2-0.8,0.4-1.2,0.6
							c-0.4,0.2-0.7,0.5-0.9,0.9c-0.3,0.3-0.4,0.7-0.5,1.1v3.6c0.2,0.4,0.4,0.8,0.7,1.2c0.3,0.4,0.6,0.7,0.9,0.9
							c0.4,0.3,0.7,0.5,1.1,0.6C84.6,81.3,85,81.4,85.4,81.4z"/>
						<path class="st3" d="M100.4,83c0-0.6,0.1-1.2,0.2-1.8c0.1-0.6,0.3-1.1,0.6-1.6c0.3-0.5,0.7-1,1.2-1.5s1.2-0.9,2-1.4
							c0.5-0.3,1-0.5,1.5-0.8s0.9-0.5,1.4-0.8c0.4-0.3,0.7-0.6,1-0.9c0.3-0.3,0.4-0.7,0.4-1.1c0-0.3-0.1-0.5-0.2-0.8
							c-0.1-0.3-0.3-0.5-0.6-0.7c-0.2-0.2-0.5-0.4-0.9-0.5c-0.4-0.1-0.8-0.2-1.2-0.2c-0.5,0-0.9,0.1-1.3,0.2c-0.4,0.1-0.7,0.3-1,0.5
							c-0.3,0.2-0.6,0.4-0.8,0.6c-0.2,0.2-0.4,0.4-0.6,0.6l-1.4-1.5c0.1-0.1,0.3-0.3,0.6-0.6s0.7-0.5,1.2-0.8c0.5-0.3,1-0.5,1.6-0.7
							c0.6-0.2,1.3-0.3,2-0.3c0.7,0,1.4,0.1,2,0.3s1.1,0.5,1.5,0.8c0.4,0.4,0.7,0.8,0.9,1.2c0.2,0.5,0.3,1,0.3,1.5
							c0,0.6-0.1,1.2-0.4,1.6c-0.3,0.5-0.6,0.9-1,1.2c-0.4,0.4-0.8,0.7-1.3,0.9s-0.8,0.5-1.2,0.6c-0.4,0.2-0.7,0.4-1.2,0.6
							c-0.4,0.2-0.9,0.5-1.3,0.8c-0.4,0.3-0.7,0.7-1,1s-0.5,0.8-0.6,1.2h8.2V83H100.4z"/>
					</g>
				</g>
			</g>
		</g>
	</g>
</g>
</svg>
